<svg width="721" height="138" viewBox="0 0 721 138" fill="none" xmlns="http://www.w3.org/2000/svg">
<path d="M93.81 111.44L94.7571 111.119L94.5271 110.44H93.81V111.44ZM44.03 111.44V110.44H43.3129L43.0829 111.119L44.03 111.44ZM36.05 135V136H36.7671L36.9971 135.321L36.05 135ZM2.04 135L1.09966 134.66L0.614731 136H2.04V135ZM50.3 1.62V0.619995H49.5984L49.3597 1.27976L50.3 1.62ZM87.92 1.62L88.8603 1.27976L88.6216 0.619995H87.92V1.62ZM136.18 135V136H137.605L137.12 134.66L136.18 135ZM101.79 135L100.843 135.321L101.073 136H101.79V135ZM85.45 86.36V87.36H86.8443L86.3972 86.0394L85.45 86.36ZM68.92 37.53L69.8672 37.2094L68.9145 34.3951L67.9717 37.2127L68.92 37.53ZM52.58 86.36L51.6317 86.0427L51.1909 87.36H52.58V86.36ZM93.81 110.44H44.03V112.44H93.81V110.44ZM43.0829 111.119L35.1029 134.679L36.9971 135.321L44.9771 111.761L43.0829 111.119ZM36.05 134H2.04V136H36.05V134ZM2.98034 135.34L51.2403 1.96023L49.3597 1.27976L1.09966 134.66L2.98034 135.34ZM50.3 2.62H87.92V0.619995H50.3V2.62ZM86.9797 1.96023L135.24 135.34L137.12 134.66L88.8603 1.27976L86.9797 1.96023ZM136.18 134H101.79V136H136.18V134ZM102.737 134.679L94.7571 111.119L92.8629 111.761L100.843 135.321L102.737 134.679ZM86.3972 86.0394L69.8672 37.2094L67.9728 37.8506L84.5028 86.6806L86.3972 86.0394ZM67.9717 37.2127L51.6317 86.0427L53.5283 86.6773L69.8683 37.8473L67.9717 37.2127ZM52.58 87.36H85.45V85.36H52.58V87.36ZM247.198 65.84L248.07 66.3286L248.074 66.3213L247.198 65.84ZM230.858 81.23L230.387 80.3481L230.858 81.23ZM183.358 87.12V86.12H182.358V87.12H183.358ZM183.358 135V136H184.358V135H183.358ZM150.868 135H149.868V136H150.868V135ZM150.868 1.62V0.619995H149.868V1.62H150.868ZM230.478 7.12999L230.925 6.23557L230.478 7.12999ZM183.358 27.84V26.84H182.358V27.84H183.358ZM183.358 61.28H182.358V62.28H183.358V61.28ZM251.518 44.56C251.518 52.1269 249.783 59.0535 246.321 65.3587L248.074 66.3213C251.706 59.7065 253.518 52.4465 253.518 44.56H251.518ZM246.325 65.3514C242.885 71.4944 237.59 76.4979 230.387 80.3481L231.329 82.1119C238.819 78.1088 244.417 72.8522 248.07 66.3286L246.325 65.3514ZM230.387 80.3481C223.223 84.177 214.276 86.12 203.498 86.12V88.12C214.507 88.12 223.8 86.1363 231.329 82.1119L230.387 80.3481ZM203.498 86.12H183.358V88.12H203.498V86.12ZM182.358 87.12V135H184.358V87.12H182.358ZM183.358 134H150.868V136H183.358V134ZM151.868 135V1.62H149.868V135H151.868ZM150.868 2.62H203.498V0.619995H150.868V2.62ZM203.498 2.62C214.027 2.62 222.858 4.43792 230.031 8.02442L230.925 6.23557C223.405 2.4754 214.249 0.619995 203.498 0.619995V2.62ZM230.031 8.02442C237.22 11.6188 242.573 16.5545 246.139 22.8243L247.877 21.8357C244.096 15.1855 238.43 9.9878 230.925 6.23557L230.031 8.02442ZM246.139 22.8243C249.716 29.1155 251.518 36.3512 251.518 44.56H253.518C253.518 36.0488 251.646 28.4644 247.877 21.8357L246.139 22.8243ZM201.028 62.28C207.372 62.28 212.292 60.7927 215.59 57.632L214.206 56.188C211.424 58.8539 207.098 60.28 201.028 60.28V62.28ZM215.59 57.632C218.876 54.4832 220.458 50.0765 220.458 44.56H218.458C218.458 49.6835 217 53.5102 214.206 56.188L215.59 57.632ZM220.458 44.56C220.458 39.0435 218.876 34.6368 215.59 31.488L214.206 32.932C217 35.6098 218.458 39.4365 218.458 44.56H220.458ZM215.59 31.488C212.292 28.3272 207.372 26.84 201.028 26.84V28.84C207.098 28.84 211.424 30.2661 214.206 32.932L215.59 31.488ZM201.028 26.84H183.358V28.84H201.028V26.84ZM182.358 27.84V61.28H184.358V27.84H182.358ZM183.358 62.28H201.028V60.28H183.358V62.28ZM365.762 65.84L366.635 66.3286L366.639 66.3213L365.762 65.84ZM349.422 81.23L348.951 80.3481L349.422 81.23ZM301.922 87.12V86.12H300.922V87.12H301.922ZM301.922 135V136H302.922V135H301.922ZM269.432 135H268.432V136H269.432V135ZM269.432 1.62V0.619995H268.432V1.62H269.432ZM349.042 7.12999L349.49 6.23557L349.042 7.12999ZM301.922 27.84V26.84H300.922V27.84H301.922ZM301.922 61.28H300.922V62.28H301.922V61.28ZM370.082 44.56C370.082 52.1269 368.348 59.0535 364.886 65.3587L366.639 66.3213C370.271 59.7065 372.082 52.4465 372.082 44.56H370.082ZM364.89 65.3514C361.45 71.4944 356.155 76.4979 348.951 80.3481L349.894 82.1119C357.383 78.1088 362.982 72.8522 366.635 66.3286L364.89 65.3514ZM348.951 80.3481C341.787 84.177 332.84 86.12 322.062 86.12V88.12C333.071 88.12 342.364 86.1363 349.894 82.1119L348.951 80.3481ZM322.062 86.12H301.922V88.12H322.062V86.12ZM300.922 87.12V135H302.922V87.12H300.922ZM301.922 134H269.432V136H301.922V134ZM270.432 135V1.62H268.432V135H270.432ZM269.432 2.62H322.062V0.619995H269.432V2.62ZM322.062 2.62C332.591 2.62 341.422 4.43792 348.595 8.02442L349.49 6.23557C341.969 2.4754 332.813 0.619995 322.062 0.619995V2.62ZM348.595 8.02442C355.784 11.6188 361.138 16.5545 364.703 22.8243L366.442 21.8357C362.66 15.1855 356.994 9.9878 349.49 6.23557L348.595 8.02442ZM364.703 22.8243C368.28 29.1155 370.082 36.3512 370.082 44.56H372.082C372.082 36.0488 370.211 28.4644 366.442 21.8357L364.703 22.8243ZM319.592 62.28C325.936 62.28 330.856 60.7927 334.154 57.632L332.77 56.188C329.989 58.8539 325.662 60.28 319.592 60.28V62.28ZM334.154 57.632C337.44 54.4832 339.022 50.0765 339.022 44.56H337.022C337.022 49.6835 335.565 53.5102 332.77 56.188L334.154 57.632ZM339.022 44.56C339.022 39.0435 337.44 34.6368 334.154 31.488L332.77 32.932C335.565 35.6098 337.022 39.4365 337.022 44.56H339.022ZM334.154 31.488C330.856 28.3272 325.936 26.84 319.592 26.84V28.84C325.662 28.84 329.989 30.2661 332.77 32.932L334.154 31.488ZM319.592 26.84H301.922V28.84H319.592V26.84ZM300.922 27.84V61.28H302.922V27.84H300.922ZM301.922 62.28H319.592V60.28H301.922V62.28ZM487.367 89.78V90.78H488.258L488.36 89.8946L487.367 89.78ZM413.837 89.78V88.78H412.757L412.84 89.8567L413.837 89.78ZM420.107 104.98L419.412 105.699L419.425 105.712L419.438 105.723L420.107 104.98ZM450.887 99.85V98.85H450.248L449.979 99.4299L450.887 99.85ZM485.467 99.85L486.436 100.097L486.753 98.85H485.467V99.85ZM475.777 118.66L475.011 118.016L475.003 118.027L475.777 118.66ZM458.487 131.77L458.901 132.68L458.487 131.77ZM407.377 129.87L406.897 130.747L407.377 129.87ZM388.377 110.87L389.252 110.385L388.377 110.87ZM388.187 53.11L387.312 52.6255L387.306 52.6359L388.187 53.11ZM407.187 34.11L407.667 34.9874V34.9874L407.187 34.11ZM462.477 33.92L462.002 34.8L462.477 33.92ZM481.097 52.35L480.223 52.8357L480.229 52.8461L481.097 52.35ZM454.687 71.73V72.73H455.687V71.73H454.687ZM448.987 58.43L449.642 57.6743L448.987 58.43ZM420.867 58.24L420.227 57.4718L420.22 57.4771L420.214 57.4826L420.867 58.24ZM414.027 71.73L413.038 71.5796L412.863 72.73H414.027V71.73ZM486.937 80.28C486.937 83.2784 486.749 86.4067 486.373 89.6654L488.36 89.8946C488.744 86.5666 488.937 83.3616 488.937 80.28H486.937ZM487.367 88.78H413.837V90.78H487.367V88.78ZM412.84 89.8567C413.36 96.6139 415.516 101.938 419.412 105.699L420.801 104.261C417.351 100.929 415.327 96.1195 414.834 89.7033L412.84 89.8567ZM419.438 105.723C423.434 109.32 428.301 111.11 433.977 111.11V109.11C428.76 109.11 424.379 107.48 420.776 104.237L419.438 105.723ZM433.977 111.11C438.171 111.11 441.796 110.224 444.803 108.4C447.815 106.573 450.14 103.844 451.794 100.27L449.979 99.4299C448.467 102.696 446.391 105.097 443.766 106.69C441.136 108.286 437.889 109.11 433.977 109.11V111.11ZM450.887 100.85H485.467V98.85H450.887V100.85ZM484.498 99.6033C482.762 106.422 479.602 112.557 475.011 118.016L476.542 119.304C481.324 113.617 484.625 107.211 486.436 100.097L484.498 99.6033ZM475.003 118.027C470.546 123.474 464.909 127.752 458.073 130.86L458.901 132.68C465.998 129.454 471.888 124.993 476.551 119.293L475.003 118.027ZM458.073 130.86C451.252 133.96 443.605 135.52 435.117 135.52V137.52C443.855 137.52 451.789 135.913 458.901 132.68L458.073 130.86ZM435.117 135.52C424.877 135.52 415.799 133.336 407.857 128.993L406.897 130.747C415.168 135.271 424.584 137.52 435.117 137.52V135.52ZM407.857 128.993C399.919 124.652 393.722 118.456 389.252 110.385L387.502 111.354C392.152 119.75 398.621 126.221 406.897 130.747L407.857 128.993ZM389.252 110.385C384.787 102.324 382.537 92.8696 382.537 81.99H380.537C380.537 93.1504 382.847 102.949 387.502 111.354L389.252 110.385ZM382.537 81.99C382.537 71.1059 384.725 61.6477 389.067 53.5841L387.306 52.6359C382.782 61.0389 380.537 70.8341 380.537 81.99H382.537ZM389.062 53.5945C393.532 45.5236 399.729 39.328 407.667 34.9874L406.707 33.2326C398.431 37.7586 391.962 44.2297 387.312 52.6255L389.062 53.5945ZM407.667 34.9874C415.607 30.645 424.748 28.46 435.117 28.46V26.46C424.459 26.46 414.98 28.7083 406.707 33.2326L407.667 34.9874ZM435.117 28.46C445.233 28.46 454.186 30.582 462.002 34.8L462.952 33.04C454.808 28.6447 445.521 26.46 435.117 26.46V28.46ZM462.002 34.8C469.813 39.0154 475.881 45.0213 480.223 52.8356L481.971 51.8643C477.446 43.7187 471.101 37.4379 462.952 33.04L462.002 34.8ZM480.229 52.8461C484.689 60.6526 486.937 69.7863 486.937 80.28H488.937C488.937 69.4937 486.624 60.0073 481.965 51.8539L480.229 52.8461ZM455.687 71.73C455.687 65.9019 453.686 61.1795 449.642 57.6743L448.332 59.1857C451.887 62.2671 453.687 66.4114 453.687 71.73H455.687ZM449.642 57.6743C445.636 54.2023 440.643 52.49 434.737 52.49V54.49C440.23 54.49 444.738 56.071 448.332 59.1857L449.642 57.6743ZM434.737 52.49C429.081 52.49 424.225 54.1399 420.227 57.4718L421.507 59.0082C425.109 56.0067 429.499 54.49 434.737 54.49V52.49ZM420.214 57.4826C416.323 60.8368 413.953 65.5699 413.038 71.5796L415.015 71.8804C415.874 66.2368 418.064 61.9766 421.52 58.9974L420.214 57.4826ZM414.027 72.73H454.687V70.73H414.027V72.73ZM599.317 40L598.576 40.6715L598.581 40.6776L598.587 40.6836L599.317 40ZM610.527 135V136H611.527V135H610.527ZM578.227 135H577.227V136H578.227V135ZM572.717 60.9L571.987 61.5832L572.717 60.9ZM543.077 60.9L543.807 61.5832L543.077 60.9ZM537.567 135V136H538.567V135H537.567ZM505.077 135H504.077V136H505.077V135ZM505.077 28.98V27.98H504.077V28.98H505.077ZM537.567 28.98H538.567V27.98H537.567V28.98ZM537.567 43.04H536.567V46.2024L538.385 43.6149L537.567 43.04ZM550.867 32.02L551.298 32.9225L551.306 32.9185L551.314 32.9144L550.867 32.02ZM569.677 28.84C581.85 28.84 591.445 32.8033 598.576 40.6715L600.058 39.3285C592.495 30.9834 582.33 26.84 569.677 26.84V28.84ZM598.587 40.6836C605.841 48.4298 609.527 59.1787 609.527 73.06H611.527C611.527 58.8213 607.739 47.5302 600.047 39.3164L598.587 40.6836ZM609.527 73.06V135H611.527V73.06H609.527ZM610.527 134H578.227V136H610.527V134ZM579.227 135V77.43H577.227V135H579.227ZM579.227 77.43C579.227 70.1661 577.343 64.3817 573.447 60.2168L571.987 61.5832C575.437 65.2717 577.227 70.5072 577.227 77.43H579.227ZM573.447 60.2168C569.555 56.0563 564.334 54.01 557.897 54.01V56.01C563.874 56.01 568.532 57.8904 571.987 61.5832L573.447 60.2168ZM557.897 54.01C551.46 54.01 546.239 56.0563 542.347 60.2168L543.807 61.5832C547.262 57.8904 551.92 56.01 557.897 56.01V54.01ZM542.347 60.2168C538.451 64.3817 536.567 70.1661 536.567 77.43H538.567C538.567 70.5072 540.357 65.2717 543.807 61.5832L542.347 60.2168ZM536.567 77.43V135H538.567V77.43H536.567ZM537.567 134H505.077V136H537.567V134ZM506.077 135V28.98H504.077V135H506.077ZM505.077 29.98H537.567V27.98H505.077V29.98ZM536.567 28.98V43.04H538.567V28.98H536.567ZM538.385 43.6149C541.572 39.0799 545.867 35.5144 551.298 32.9225L550.436 31.1175C544.72 33.8456 540.149 37.6268 536.749 42.465L538.385 43.6149ZM551.314 32.9144C556.733 30.205 562.847 28.84 569.677 28.84V26.84C562.573 26.84 556.148 28.2616 550.42 31.1256L551.314 32.9144ZM651.534 131.77L651.936 130.854L651.534 131.77ZM634.434 118.85L633.634 119.45L633.641 119.459L634.434 118.85ZM627.404 100.23V99.23H626.327L626.407 100.304L627.404 100.23ZM659.514 100.23L660.509 100.127L660.416 99.23H659.514V100.23ZM664.644 109.16L665.244 108.36L664.644 109.16ZM685.164 110.3L685.741 111.117L685.75 111.111L685.164 110.3ZM683.834 97.38L683.401 98.2815L683.416 98.2887L683.431 98.2953L683.834 97.38ZM668.444 92.44L668.687 91.4699L668.679 91.4679L668.671 91.4662L668.444 92.44ZM649.444 86.93L649.073 87.8585L649.083 87.8625L649.093 87.8663L649.444 86.93ZM636.334 77.62L635.573 78.2689L635.578 78.2746L635.583 78.2801L636.334 77.62ZM635.764 43.8L634.935 43.2405L634.932 43.2453L635.764 43.8ZM650.584 31.83L650.18 30.9154L650.173 30.9184L650.584 31.83ZM705.304 37.34L704.649 38.0957L704.656 38.101L705.304 37.34ZM718.604 63.56V64.56H719.714L719.599 63.4559L718.604 63.56ZM688.584 63.56L687.594 63.6966L687.713 64.56H688.584V63.56ZM683.644 54.82L683.015 55.5972L683.024 55.6044L683.033 55.6113L683.644 54.82ZM664.264 53.87L664.831 54.694L664.848 54.6824L664.864 54.67L664.264 53.87ZM665.974 66.6L665.542 67.5015L665.548 67.5048L665.555 67.508L665.974 66.6ZM681.174 71.16L681.424 70.1917L681.408 70.1875L681.391 70.1838L681.174 71.16ZM700.364 77.24L699.985 78.1652L699.995 78.1694L700.005 78.1733L700.364 77.24ZM713.284 86.74L712.514 87.378L712.524 87.39L712.534 87.4016L713.284 86.74ZM719.174 104.22H720.174V104.211L720.174 104.203L719.174 104.22ZM713.854 120.94L713.042 120.357L713.039 120.361L713.854 120.94ZM698.844 132.34L698.455 131.419L698.448 131.422L698.844 132.34ZM676.234 135.52C667.102 135.52 659.009 133.957 651.936 130.854L651.133 132.686C658.499 135.917 666.873 137.52 676.234 137.52V135.52ZM651.936 130.854C644.847 127.745 639.291 123.535 635.228 118.241L633.641 119.459C637.938 125.058 643.781 129.462 651.133 132.686L651.936 130.854ZM635.234 118.25C631.167 112.827 628.894 106.802 628.401 100.156L626.407 100.304C626.928 107.338 629.341 113.726 633.634 119.45L635.234 118.25ZM627.404 101.23H659.514V99.23H627.404V101.23ZM658.52 100.333C658.929 104.292 660.789 107.518 664.044 109.96L665.244 108.36C662.42 106.242 660.859 103.514 660.509 100.127L658.52 100.333ZM664.044 109.96C667.285 112.391 671.242 113.58 675.854 113.58V111.58C671.6 111.58 668.083 110.489 665.244 108.36L664.044 109.96ZM675.854 113.58C680.01 113.58 683.35 112.804 685.741 111.117L684.588 109.483C682.672 110.836 679.805 111.58 675.854 111.58V113.58ZM685.75 111.111C688.257 109.3 689.584 106.923 689.584 104.03H687.584C687.584 106.203 686.632 108.007 684.579 109.489L685.75 111.111ZM689.584 104.03C689.584 102.327 689.137 100.804 688.21 99.5063C687.29 98.2171 685.941 97.2145 684.237 96.4647L683.431 98.2953C684.894 98.9389 685.92 99.7412 686.583 100.669C687.24 101.588 687.584 102.693 687.584 104.03H689.584ZM684.267 96.4785C681.004 94.9122 675.791 93.246 668.687 91.4699L668.202 93.4101C675.284 95.1807 680.331 96.8078 683.401 98.2815L684.267 96.4785ZM668.671 91.4662C661.097 89.6988 654.808 87.8735 649.795 85.9937L649.093 87.8663C654.214 89.7865 660.592 91.6346 668.217 93.4138L668.671 91.4662ZM649.816 86.0015C644.898 84.0344 640.657 81.0242 637.085 76.9599L635.583 78.2801C639.358 82.5757 643.857 85.7723 649.073 87.8585L649.816 86.0015ZM637.095 76.9711C633.615 72.8906 631.824 67.3793 631.824 60.33H629.824C629.824 67.7207 631.707 73.736 635.573 78.2689L637.095 76.9711ZM631.824 60.33C631.824 54.4424 633.415 49.1263 636.596 44.3547L634.932 43.2453C631.527 48.3537 629.824 54.0576 629.824 60.33H631.824ZM636.593 44.3595C639.894 39.4698 644.677 35.591 650.995 32.7416L650.173 30.9184C643.571 33.8957 638.475 37.9968 634.935 43.2405L636.593 44.3595ZM650.989 32.7445C657.42 29.8997 665.067 28.46 673.954 28.46V26.46C664.855 26.46 656.921 27.9336 650.18 30.9155L650.989 32.7445ZM673.954 28.46C687.092 28.46 697.283 31.7115 704.649 38.0957L705.959 36.5843C698.126 29.7952 687.416 26.46 673.954 26.46V28.46ZM704.656 38.101C712.171 44.5073 716.494 53.004 717.61 63.6641L719.599 63.4559C718.434 52.3294 713.891 43.346 705.953 36.579L704.656 38.101ZM718.604 62.56H688.584V64.56H718.604V62.56ZM689.575 63.4234C689.034 59.5058 687.261 56.3513 684.256 54.0287L683.033 55.6113C685.6 57.5953 687.121 60.2675 687.594 63.6966L689.575 63.4234ZM684.273 54.0427C681.389 51.7074 677.598 50.59 673.004 50.59V52.59C677.277 52.59 680.58 53.6259 683.015 55.5972L684.273 54.0427ZM673.004 50.59C669.091 50.59 665.931 51.3697 663.664 53.07L664.864 54.67C666.65 53.3303 669.318 52.59 673.004 52.59V50.59ZM663.698 53.046C661.39 54.6324 660.224 56.9092 660.224 59.76H662.224C662.224 57.5441 663.085 55.8942 664.831 54.694L663.698 53.046ZM660.224 59.76C660.224 61.4636 660.671 62.997 661.59 64.3204C662.504 65.6355 663.843 66.6862 665.542 67.5015L666.407 65.6985C664.939 64.9938 663.903 64.1445 663.233 63.1796C662.569 62.223 662.224 61.0964 662.224 59.76H660.224ZM665.555 67.508C668.948 69.0739 674.099 70.6122 680.957 72.1362L681.391 70.1838C674.569 68.6678 669.587 67.166 666.393 65.692L665.555 67.508ZM680.924 72.1283C688.754 74.1487 695.102 76.1622 699.985 78.1652L700.744 76.3148C695.746 74.2644 689.301 72.2246 681.424 70.1917L680.924 72.1283ZM700.005 78.1733C704.771 80.0064 708.94 83.0648 712.514 87.378L714.054 86.102C710.281 81.5485 705.837 78.2735 700.723 76.3066L700.005 78.1733ZM712.534 87.4016C716.137 91.4849 718.051 97.0603 718.174 104.237L720.174 104.203C720.044 96.6864 718.031 90.6084 714.034 86.0784L712.534 87.4016ZM718.174 104.22C718.174 110.222 716.464 115.59 713.042 120.357L714.667 121.523C718.338 116.41 720.174 110.631 720.174 104.22H718.174ZM713.039 120.361C709.747 124.994 704.907 128.689 698.455 131.419L699.234 133.261C705.955 130.417 711.121 126.513 714.669 121.519L713.039 120.361ZM698.448 131.422C692.138 134.144 684.741 135.52 676.234 135.52V137.52C684.954 137.52 692.63 136.109 699.24 133.258L698.448 131.422Z" fill="white" fill-opacity="0.2"/>
</svg>
