<svg width="450" height="142" viewBox="0 0 450 142" fill="none" xmlns="http://www.w3.org/2000/svg">
<path d="M0.41 115.97L-0.211882 115.187C-0.450766 115.377 -0.59 115.665 -0.59 115.97H0.41ZM6.3 111.22L5.66292 110.449C5.25259 110.788 5.17989 111.389 5.49752 111.817C5.81515 112.244 6.41177 112.347 6.8547 112.052L6.3 111.22ZM35.56 85.95L34.886 85.2112L34.8796 85.2172L35.56 85.95ZM57.6 31.99L56.829 32.6269V32.6269L57.6 31.99ZM35.37 33.13L34.5733 32.5256L34.57 32.53L35.37 33.13ZM31.38 48.33V49.33C31.9323 49.33 32.38 48.8823 32.38 48.33H31.38ZM0.0300002 48.33L-0.969723 48.3065C-0.976058 48.5757 -0.873542 48.8361 -0.685375 49.0287C-0.497208 49.2214 -0.239295 49.33 0.0300002 49.33V48.33ZM6.87 21.35L6.01776 20.8267L6.01118 20.8377L6.87 21.35ZM24.16 5.38999L23.7319 4.48623L23.7257 4.48922L24.16 5.38999ZM82.11 11.85L81.397 12.5513L81.4029 12.5571L82.11 11.85ZM79.83 79.87L80.61 80.4957L80.6134 80.4916L79.83 79.87ZM44.49 113.69L43.88 112.898C43.5407 113.159 43.4054 113.607 43.5433 114.012C43.6813 114.417 44.0619 114.69 44.49 114.69V113.69ZM95.79 113.69H96.79C96.79 113.138 96.3423 112.69 95.79 112.69V113.69ZM95.79 140.1V141.1C96.3423 141.1 96.79 140.652 96.79 140.1H95.79ZM0.41 140.1H-0.59C-0.59 140.652 -0.142284 141.1 0.41 141.1V140.1ZM1.03188 116.753C3.18545 115.043 4.75546 113.79 5.74025 112.996C6.23102 112.6 6.58242 112.313 6.78882 112.14C6.8781 112.065 6.97707 111.981 7.03976 111.918C7.03991 111.918 7.1162 111.845 7.1827 111.743C7.20198 111.714 7.24797 111.641 7.28541 111.538C7.30799 111.476 7.41842 111.172 7.27082 110.813C7.07638 110.341 6.64666 110.219 6.44296 110.199C6.26167 110.181 6.12183 110.218 6.08067 110.229C5.97793 110.257 5.90227 110.296 5.88638 110.304C5.85671 110.319 5.83277 110.333 5.81856 110.342C5.78949 110.359 5.7634 110.376 5.7453 110.388L6.8547 112.052C6.86035 112.048 6.85343 112.053 6.83896 112.062C6.83205 112.066 6.81426 112.076 6.78961 112.089C6.77872 112.094 6.70692 112.132 6.60691 112.159C6.56711 112.17 6.42834 112.207 6.24784 112.189C6.04493 112.169 5.61572 112.047 5.42148 111.575C5.27411 111.217 5.38446 110.913 5.40669 110.852C5.44378 110.751 5.48913 110.679 5.50748 110.651C5.54795 110.589 5.58602 110.546 5.59483 110.537C5.60951 110.52 5.62095 110.509 5.62555 110.504C5.63679 110.493 5.61107 110.517 5.50243 110.609C5.313 110.768 4.97565 111.043 4.48475 111.439C3.50621 112.228 1.94122 113.477 -0.211882 115.187L1.03188 116.753ZM6.93709 111.991C19.3569 101.725 29.1269 93.2882 36.2405 86.6828L34.8796 85.2172C27.8065 91.7851 18.0697 100.195 5.66292 110.449L6.93709 111.991ZM36.234 86.6888C43.5044 80.0561 49.637 73.0953 54.6253 65.8047L52.9747 64.6753C48.083 71.8247 42.0556 78.6706 34.886 85.2112L36.234 86.6888ZM54.6253 65.8047C59.6475 58.4646 62.21 51.2411 62.21 44.15H60.21C60.21 50.7389 57.8326 57.5754 52.9747 64.6753L54.6253 65.8047ZM62.21 44.15C62.21 38.8107 60.9727 34.5026 58.371 31.3531L56.829 32.6269C59.0406 35.304 60.21 39.1026 60.21 44.15H62.21ZM58.371 31.3531C55.7244 28.1493 51.7932 26.62 46.77 26.62V28.62C51.3735 28.62 54.6623 30.004 56.829 32.6269L58.371 31.3531ZM46.77 26.62C41.6599 26.62 37.5585 28.5905 34.5733 32.5256L36.1667 33.7344C38.7548 30.3228 42.2534 28.62 46.77 28.62V26.62ZM34.57 32.53C31.7307 36.3157 30.38 41.6272 30.38 48.33H32.38C32.38 41.8594 33.6893 37.0376 36.17 33.73L34.57 32.53ZM31.38 47.33H0.0300002V49.33H31.38V47.33ZM1.02972 48.3535C1.28012 37.7118 3.53193 28.8982 7.72882 21.8623L6.01118 20.8377C1.59474 28.2417 -0.713449 37.4149 -0.969723 48.3065L1.02972 48.3535ZM7.72217 21.8733C12.0632 14.8036 17.6867 9.6212 24.5943 6.29076L23.7257 4.48922C16.4466 7.99879 10.5435 13.4564 6.01783 20.8267L7.72217 21.8733ZM24.5881 6.29373C31.6621 2.94288 39.494 1.25999 48.1 1.25999V-0.740009C39.226 -0.740009 31.0979 0.997097 23.7319 4.48625L24.5881 6.29373ZM48.1 1.25999C63.0121 1.25999 74.0487 5.08037 81.3971 12.5512L82.8229 11.1487C74.9713 3.16628 63.3346 -0.740009 48.1 -0.740009V1.25999ZM81.4029 12.5571C88.916 20.0702 92.7 29.8726 92.7 42.06H94.7C94.7 29.4207 90.7574 19.0831 82.8171 11.1429L81.4029 12.5571ZM92.7 42.06C92.7 55.3653 88.1676 67.7535 79.0466 79.2484L80.6134 80.4916C89.9858 68.6798 94.7 55.8614 94.7 42.06H92.7ZM79.05 79.2443C69.8627 90.6969 58.1436 101.916 43.88 112.898L45.1001 114.482C59.4631 103.424 71.304 92.0965 80.61 80.4957L79.05 79.2443ZM44.49 114.69H95.79V112.69H44.49V114.69ZM94.79 113.69V140.1H96.79V113.69H94.79ZM95.79 139.1H0.41V141.1H95.79V139.1ZM1.41 140.1V115.97H-0.59V140.1H1.41ZM122.635 19.26L121.807 18.6995L121.803 18.7053L122.635 19.26ZM204.145 19.26L203.313 19.8147L203.317 19.8205L204.145 19.26ZM204.145 122.62L203.317 122.06L203.313 122.065L204.145 122.62ZM122.635 122.62L121.803 123.175L121.807 123.18L122.635 122.62ZM180.775 41.3L179.846 41.6714L179.849 41.6773L180.775 41.3ZM146.195 41.3L147.121 41.6773L147.123 41.6714L146.195 41.3ZM143.535 92.22L142.55 92.395L142.551 92.3989L143.535 92.22ZM149.615 105.9L148.856 106.551C148.864 106.56 148.872 106.57 148.881 106.579L149.615 105.9ZM177.165 105.9L176.419 105.234L176.418 105.236L177.165 105.9ZM183.435 92.22L184.419 92.3989L184.419 92.395L183.435 92.22ZM111.095 70.75C111.095 49.077 115.255 32.1324 123.467 19.8147L121.803 18.7053C113.295 31.4676 109.095 48.8496 109.095 70.75H111.095ZM123.463 19.8205C131.719 7.62204 144.981 1.44999 163.485 1.44999V-0.550013C144.496 -0.550013 130.525 5.81794 121.807 18.6995L123.463 19.8205ZM163.485 1.44999C181.99 1.44999 195.184 7.62199 203.313 19.8147L204.977 18.7053C196.385 5.81799 182.473 -0.550013 163.485 -0.550013V1.44999ZM203.317 19.8205C211.652 32.1371 215.875 49.0794 215.875 70.75H217.875C217.875 48.8472 213.611 31.4629 204.973 18.6995L203.317 19.8205ZM215.875 70.75C215.875 92.6767 211.651 109.744 203.317 122.06L204.973 123.18C213.612 110.416 217.875 92.9033 217.875 70.75H215.875ZM203.313 122.065C195.184 134.258 181.99 140.43 163.485 140.43V142.43C182.473 142.43 196.385 136.062 204.977 123.175L203.313 122.065ZM163.485 140.43C144.981 140.43 131.719 134.258 123.463 122.06L121.807 123.18C130.525 136.062 144.496 142.43 163.485 142.43V140.43ZM123.467 122.065C115.256 109.749 111.095 92.6791 111.095 70.75H109.095C109.095 92.9009 113.294 110.411 121.803 123.175L123.467 122.065ZM185.955 70.75C185.955 57.9081 184.56 47.9396 181.701 40.9227L179.849 41.6773C182.563 48.3404 183.955 58.0053 183.955 70.75H185.955ZM181.703 40.9286C180.239 37.2676 177.969 34.4736 174.88 32.6067C171.802 30.7465 167.984 29.85 163.485 29.85V31.85C167.726 31.85 171.16 32.6951 173.845 34.3183C176.52 35.9347 178.524 38.3657 179.846 41.6714L181.703 40.9286ZM163.485 29.85C158.986 29.85 155.168 30.7465 152.09 32.6067C149.001 34.4736 146.731 37.2676 145.266 40.9286L147.123 41.6714C148.446 38.3657 150.45 35.9347 153.125 34.3183C155.81 32.6951 159.244 31.85 163.485 31.85V29.85ZM145.269 40.9227C142.41 47.9396 141.015 57.9081 141.015 70.75H143.015C143.015 58.0053 144.406 48.3404 147.121 41.6773L145.269 40.9227ZM141.015 70.75C141.015 79.3966 141.523 86.6167 142.55 92.395L144.519 92.045C143.52 86.4233 143.015 79.3301 143.015 70.75H141.015ZM142.551 92.3989C143.589 98.1096 145.678 102.844 148.856 106.551L150.374 105.249C147.472 101.863 145.507 97.4771 144.519 92.0411L142.551 92.3989ZM148.881 106.579C152.29 110.261 157.216 112.03 163.485 112.03V110.03C157.594 110.03 153.273 108.379 150.349 105.221L148.881 106.579ZM163.485 112.03C169.752 112.03 174.625 110.262 177.912 106.564L176.418 105.236C173.624 108.378 169.378 110.03 163.485 110.03V112.03ZM177.911 106.566C181.222 102.858 183.379 98.1184 184.419 92.3989L182.451 92.0411C181.464 97.4682 179.441 101.849 176.419 105.234L177.911 106.566ZM184.419 92.395C185.447 86.6167 185.955 79.3966 185.955 70.75H183.955C183.955 79.3301 183.45 86.4233 182.45 92.045L184.419 92.395ZM232.9 115.97L232.278 115.187C232.039 115.377 231.9 115.665 231.9 115.97H232.9ZM238.79 111.22L238.153 110.449C237.743 110.788 237.67 111.389 237.988 111.817C238.305 112.244 238.902 112.347 239.345 112.052L238.79 111.22ZM268.05 85.95L267.376 85.2112L267.37 85.2172L268.05 85.95ZM290.09 31.99L289.319 32.6269V32.6269L290.09 31.99ZM267.86 33.13L267.064 32.5256L267.06 32.53L267.86 33.13ZM263.87 48.33V49.33C264.423 49.33 264.87 48.8823 264.87 48.33H263.87ZM232.52 48.33L231.521 48.3065C231.514 48.5757 231.617 48.8361 231.805 49.0287C231.993 49.2214 232.251 49.33 232.52 49.33V48.33ZM239.36 21.35L238.508 20.8267L238.501 20.8377L239.36 21.35ZM256.65 5.38999L256.222 4.48623L256.216 4.48922L256.65 5.38999ZM314.6 11.85L313.887 12.5513L313.893 12.5571L314.6 11.85ZM312.32 79.87L313.1 80.4957L313.104 80.4916L312.32 79.87ZM276.98 113.69L276.37 112.898C276.031 113.159 275.896 113.607 276.034 114.012C276.172 114.417 276.552 114.69 276.98 114.69V113.69ZM328.28 113.69H329.28C329.28 113.138 328.833 112.69 328.28 112.69V113.69ZM328.28 140.1V141.1C328.833 141.1 329.28 140.652 329.28 140.1H328.28ZM232.9 140.1H231.9C231.9 140.652 232.348 141.1 232.9 141.1V140.1ZM233.522 116.753C235.676 115.043 237.246 113.79 238.23 112.996C238.721 112.6 239.073 112.313 239.279 112.14C239.368 112.065 239.467 111.981 239.53 111.918C239.53 111.918 239.606 111.845 239.673 111.743C239.692 111.714 239.738 111.641 239.776 111.538C239.798 111.476 239.909 111.172 239.761 110.813C239.567 110.341 239.137 110.219 238.933 110.199C238.752 110.181 238.612 110.218 238.571 110.229C238.468 110.257 238.393 110.296 238.377 110.304C238.347 110.319 238.323 110.333 238.309 110.342C238.28 110.359 238.254 110.376 238.236 110.388L239.345 112.052C239.351 112.048 239.344 112.053 239.329 112.062C239.322 112.066 239.304 112.076 239.28 112.089C239.269 112.094 239.197 112.132 239.097 112.159C239.057 112.17 238.919 112.207 238.738 112.189C238.535 112.169 238.106 112.047 237.912 111.575C237.764 111.217 237.875 110.913 237.897 110.852C237.934 110.751 237.979 110.679 237.998 110.651C238.038 110.589 238.076 110.546 238.085 110.537C238.1 110.52 238.111 110.509 238.116 110.504C238.127 110.493 238.101 110.517 237.993 110.609C237.803 110.768 237.466 111.043 236.975 111.439C235.996 112.228 234.431 113.477 232.278 115.187L233.522 116.753ZM239.427 111.991C251.847 101.725 261.617 93.2882 268.731 86.6828L267.37 85.2172C260.297 91.7851 250.56 100.195 238.153 110.449L239.427 111.991ZM268.724 86.6888C275.995 80.0561 282.127 73.0953 287.116 65.8047L285.465 64.6753C280.573 71.8247 274.546 78.6706 267.376 85.2112L268.724 86.6888ZM287.116 65.8047C292.138 58.4646 294.7 51.2411 294.7 44.15H292.7C292.7 50.7389 290.323 57.5754 285.465 64.6753L287.116 65.8047ZM294.7 44.15C294.7 38.8107 293.463 34.5026 290.861 31.3531L289.319 32.6269C291.531 35.304 292.7 39.1026 292.7 44.15H294.7ZM290.861 31.3531C288.215 28.1493 284.283 26.62 279.26 26.62V28.62C283.864 28.62 287.153 30.004 289.319 32.6269L290.861 31.3531ZM279.26 26.62C274.15 26.62 270.049 28.5905 267.064 32.5256L268.657 33.7344C271.245 30.3228 274.744 28.62 279.26 28.62V26.62ZM267.06 32.53C264.221 36.3157 262.87 41.6272 262.87 48.33H264.87C264.87 41.8594 266.18 37.0376 268.66 33.73L267.06 32.53ZM263.87 47.33H232.52V49.33H263.87V47.33ZM233.52 48.3535C233.77 37.7118 236.022 28.8982 240.219 21.8623L238.501 20.8377C234.085 28.2417 231.777 37.4149 231.521 48.3065L233.52 48.3535ZM240.212 21.8733C244.553 14.8036 250.177 9.6212 257.085 6.29076L256.216 4.48922C248.937 7.99879 243.034 13.4564 238.508 20.8267L240.212 21.8733ZM257.078 6.29373C264.152 2.94288 271.984 1.25999 280.59 1.25999V-0.740009C271.716 -0.740009 263.588 0.997097 256.222 4.48625L257.078 6.29373ZM280.59 1.25999C295.502 1.25999 306.539 5.08037 313.887 12.5512L315.313 11.1487C307.462 3.16628 295.825 -0.740009 280.59 -0.740009V1.25999ZM313.893 12.5571C321.406 20.0702 325.19 29.8726 325.19 42.06H327.19C327.19 29.4207 323.248 19.0831 315.307 11.1429L313.893 12.5571ZM325.19 42.06C325.19 55.3653 320.658 67.7535 311.537 79.2484L313.104 80.4916C322.476 68.6798 327.19 55.8614 327.19 42.06H325.19ZM311.54 79.2443C302.353 90.6969 290.634 101.916 276.37 112.898L277.59 114.482C291.953 103.424 303.794 92.0965 313.1 80.4957L311.54 79.2443ZM276.98 114.69H328.28V112.69H276.98V114.69ZM327.28 113.69V140.1H329.28V113.69H327.28ZM328.28 139.1H232.9V141.1H328.28V139.1ZM233.9 140.1V115.97H231.9V140.1H233.9ZM355.125 19.26L354.297 18.6995L354.293 18.7053L355.125 19.26ZM436.635 19.26L435.803 19.8147L435.807 19.8205L436.635 19.26ZM436.635 122.62L435.807 122.06L435.803 122.065L436.635 122.62ZM355.125 122.62L354.293 123.175L354.297 123.18L355.125 122.62ZM413.265 41.3L412.337 41.6714L412.339 41.6773L413.265 41.3ZM378.685 41.3L379.611 41.6773L379.614 41.6714L378.685 41.3ZM376.025 92.22L375.041 92.395L375.041 92.3989L376.025 92.22ZM382.105 105.9L381.346 106.551C381.354 106.56 381.363 106.57 381.371 106.579L382.105 105.9ZM409.655 105.9L408.909 105.234L408.908 105.236L409.655 105.9ZM415.925 92.22L416.909 92.3989L416.91 92.395L415.925 92.22ZM343.585 70.75C343.585 49.077 347.745 32.1324 355.957 19.8147L354.293 18.7053C345.785 31.4676 341.585 48.8496 341.585 70.75H343.585ZM355.953 19.8205C364.209 7.62204 377.471 1.44999 395.975 1.44999V-0.550013C376.986 -0.550013 363.015 5.81794 354.297 18.6995L355.953 19.8205ZM395.975 1.44999C414.48 1.44999 427.675 7.62199 435.803 19.8147L437.467 18.7053C428.876 5.81799 414.964 -0.550013 395.975 -0.550013V1.44999ZM435.807 19.8205C444.142 32.1371 448.365 49.0794 448.365 70.75H450.365C450.365 48.8472 446.101 31.4629 437.463 18.6995L435.807 19.8205ZM448.365 70.75C448.365 92.6767 444.141 109.744 435.807 122.06L437.463 123.18C446.102 110.416 450.365 92.9033 450.365 70.75H448.365ZM435.803 122.065C427.675 134.258 414.48 140.43 395.975 140.43V142.43C414.964 142.43 428.876 136.062 437.467 123.175L435.803 122.065ZM395.975 140.43C377.471 140.43 364.209 134.258 355.953 122.06L354.297 123.18C363.015 136.062 376.986 142.43 395.975 142.43V140.43ZM355.957 122.065C347.746 109.749 343.585 92.6791 343.585 70.75H341.585C341.585 92.9009 345.784 110.411 354.293 123.175L355.957 122.065ZM418.445 70.75C418.445 57.9081 417.05 47.9396 414.191 40.9227L412.339 41.6773C415.054 48.3404 416.445 58.0053 416.445 70.75H418.445ZM414.194 40.9286C412.729 37.2676 410.459 34.4736 407.37 32.6067C404.292 30.7465 400.474 29.85 395.975 29.85V31.85C400.216 31.85 403.65 32.6951 406.335 34.3183C409.01 35.9347 411.014 38.3657 412.337 41.6714L414.194 40.9286ZM395.975 29.85C391.476 29.85 387.658 30.7465 384.58 32.6067C381.491 34.4736 379.221 37.2676 377.757 40.9286L379.614 41.6714C380.936 38.3657 382.941 35.9347 385.615 34.3183C388.301 32.6951 391.734 31.85 395.975 31.85V29.85ZM377.759 40.9227C374.9 47.9396 373.505 57.9081 373.505 70.75H375.505C375.505 58.0053 376.897 48.3404 379.611 41.6773L377.759 40.9227ZM373.505 70.75C373.505 79.3966 374.013 86.6167 375.041 92.395L377.01 92.045C376.01 86.4233 375.505 79.3301 375.505 70.75H373.505ZM375.041 92.3989C376.08 98.1096 378.168 102.844 381.346 106.551L382.864 105.249C379.962 101.863 377.997 97.4771 377.009 92.0411L375.041 92.3989ZM381.371 106.579C384.781 110.261 389.706 112.03 395.975 112.03V110.03C390.084 110.03 385.763 108.379 382.839 105.221L381.371 106.579ZM395.975 112.03C402.242 112.03 407.116 110.262 410.403 106.564L408.908 105.236C406.115 108.378 401.868 110.03 395.975 110.03V112.03ZM410.401 106.566C413.712 102.858 415.869 98.1184 416.909 92.3989L414.941 92.0411C413.955 97.4682 411.932 101.849 408.909 105.234L410.401 106.566ZM416.91 92.395C417.937 86.6167 418.445 79.3966 418.445 70.75H416.445C416.445 79.3301 415.94 86.4233 414.941 92.045L416.91 92.395Z" fill="white" fill-opacity="0.2"/>
</svg>
