<svg id="Layer_1" data-name="Layer 1" xmlns="http://www.w3.org/2000/svg" viewBox="0 0 32 6.37"><defs><style>.cls-1{fill:#fff;}.cls-2{opacity:0.1;}.cls-3{opacity:0.2;}.cls-4{opacity:0.3;}.cls-5{opacity:0.4;}.cls-6{opacity:0.5;}.cls-7{opacity:0.6;}.cls-8{opacity:0.7;}.cls-9{opacity:0.8;}.cls-10{opacity:0.9;}</style></defs><g id="Logotipo"><path class="cls-1" d="M5.8,1.51a.12.12,0,0,1,.12.12h0V4.82A.12.12,0,0,1,5.8,5H5a.12.12,0,0,1-.12-.13V4.29a.12.12,0,0,0-.13-.12H4.19a.12.12,0,0,0-.12.12v.53A.13.13,0,0,1,4,5h-.8A.13.13,0,0,1,3,4.82V1.63a.13.13,0,0,1,.13-.12H4a.13.13,0,0,1,.12.12h0v.54a.12.12,0,0,0,.12.12h.56a.13.13,0,0,0,.13-.12V1.63A.12.12,0,0,1,5,1.51Z"/><path class="cls-1" d="M6.41,2.2A.78.78,0,1,1,7.19,3h0A.78.78,0,0,1,6.41,2.2Zm1.3,1.08a.12.12,0,0,1,.12.12h0V4.83A.12.12,0,0,1,7.71,5H6.63a.12.12,0,0,1-.12-.12V3.4a.12.12,0,0,1,.12-.12Z"/><path class="cls-1" d="M9.91,2.62a.13.13,0,0,0-.12.12v.19a.12.12,0,0,0,.12.12h.28a.12.12,0,0,1,.12.12v.62a.12.12,0,0,1-.12.12H9.91A.13.13,0,0,0,9.79,4v.8A.12.12,0,0,1,9.67,5H8.58a.12.12,0,0,1-.12-.12V1.63a.12.12,0,0,1,.12-.12h1.61a.12.12,0,0,1,.12.12h0V2.5a.12.12,0,0,1-.12.12Z"/><path class="cls-1" d="M13.06,2.5a.12.12,0,0,1-.12.12h-.28a.12.12,0,0,0-.12.12V4.82a.12.12,0,0,1-.13.12H11.33a.12.12,0,0,1-.12-.12V2.74a.14.14,0,0,0-.13-.12h-.27a.12.12,0,0,1-.13-.12V1.63a.13.13,0,0,1,.13-.12h2.13a.13.13,0,0,1,.12.12Z"/><path class="cls-1" d="M19.16,1.51A1.26,1.26,0,0,1,19.21,4h-.05v.8A.12.12,0,0,1,19,5H17.89a.12.12,0,0,1-.12-.13V1.63a.12.12,0,0,1,.12-.12Zm-.08.94a.31.31,0,1,0,.31.31h0A.31.31,0,0,0,19.08,2.45Z"/><path class="cls-1" d="M22.18,1.51a1.26,1.26,0,0,1,0,2.51v.8a.13.13,0,0,1-.12.13H20.91a.12.12,0,0,1-.12-.13V1.63a.12.12,0,0,1,.12-.12Zm-.08.94a.31.31,0,0,0,0,.62.3.3,0,0,0,.3-.31h0A.3.3,0,0,0,22.1,2.45Z"/><path class="cls-1" d="M25.25,2.84a.13.13,0,0,0-.12.13v.52a.12.12,0,0,0,.12.12h.54a.12.12,0,0,1,.12.13V4.82a.12.12,0,0,1-.12.13H23.92a.13.13,0,0,1-.12-.13V1.63a.13.13,0,0,1,.12-.12h1.87a.12.12,0,0,1,.12.12V2.72a.12.12,0,0,1-.12.13Z"/><path class="cls-1" d="M27.53,4.41s-.13,0-.13,0v.38a.12.12,0,0,1-.12.12h-.75a.12.12,0,0,1-.13-.12V1.63a.13.13,0,0,1,.13-.12h.75a.23.23,0,0,1,.2.09l.37.45A.07.07,0,0,0,28,2V1.63a.12.12,0,0,1,.12-.12h.75a.12.12,0,0,1,.12.12V4.82a.12.12,0,0,1-.12.12H28.1a.21.21,0,0,1-.2-.09Z"/><path class="cls-1" d="M32,2.5a.12.12,0,0,1-.13.12h-.31a.12.12,0,0,0-.13.12V4.82a.14.14,0,0,1-.13.13H29.48a.15.15,0,0,1-.14-.13V4a.13.13,0,0,1,.14-.12h.3a.14.14,0,0,0,.14-.12V1.63a.12.12,0,0,1,.13-.12h1.77a.12.12,0,0,1,.13.12Z"/><g class="cls-2"><path class="cls-1" d="M1.63,2.26h0a.05.05,0,0,1,.05,0l.14.39v0s0,0,0,0l-.14,0a.08.08,0,0,0,0,.09l.34.95s0,0,0,0l0,0-.81.3h0a.05.05,0,0,1-.05,0l-.14-.4s0,0,0-.06l.14,0s0,0,0,0a.09.09,0,0,0,0-.05L.76,2.62a.08.08,0,0,1,0,0s0,0,0,0l.8-.29h0m0,0h0l-.8.3s-.05,0,0,.08h0l.34.94a.07.07,0,0,1,0,.08L.92,3.7a.07.07,0,0,0,0,.08L1,4.17a.08.08,0,0,0,.06,0h0l.81-.29a.06.06,0,0,0,0-.08H2L1.6,2.89a.06.06,0,0,1,0-.08l.14-.05a.07.07,0,0,0,0-.08l-.15-.39a.05.05,0,0,0-.05,0Z"/></g><g class="cls-3"><path class="cls-1" d="M1.68,2.2h0a.05.05,0,0,1,.05,0l.14.43a.06.06,0,0,1,0,.07l-.15,0a.1.1,0,0,0-.05,0,0,0,0,0,0,0,.05L2,3.9S2,4,1.92,4h0l-.87.29H1a.06.06,0,0,1-.06,0L.83,3.8s0,0,0,0a0,0,0,0,1,0,0l.15,0a.1.1,0,0,0,.05,0s0,0,0-.05l-.34-1a.06.06,0,0,1,0-.07l.88-.29h0m0,0h0l-.87.29a.06.06,0,0,0-.05.08l.34,1A.07.07,0,0,1,1,3.67l-.15.05a.07.07,0,0,0-.05.08L1,4.23a.07.07,0,0,0,.07,0h0L1.92,4A.06.06,0,0,0,2,3.9H2l-.33-1a.07.07,0,0,1,0-.08l.15,0a.06.06,0,0,0,0-.08l-.14-.43a.07.07,0,0,0-.06,0Z"/></g><g class="cls-4"><path class="cls-1" d="M1.74,2.14h0a.07.07,0,0,1,.06,0l.13.47a.06.06,0,0,1,0,0l0,0-.16,0a.09.09,0,0,0-.05,0,.09.09,0,0,0,0,.07L2,4A.06.06,0,0,1,2,4l0,0L1,4.32H1a.05.05,0,0,1-.06,0L.78,3.82a.06.06,0,0,1,0-.07h0L1,3.7a.1.1,0,0,0,.05,0,.13.13,0,0,0,0-.06L.73,2.48a.06.06,0,0,1,0-.07h0l1-.27h0m0,0h0L.77,2.4s-.07,0-.06.08h0L1,3.6A.07.07,0,0,1,1,3.69H1l-.16.05s-.07,0-.06.08h0l.14.47a.06.06,0,0,0,.06,0H1l1-.27A.07.07,0,0,0,2,4L1.67,2.86a.07.07,0,0,1,.05-.09h0l.17,0a.06.06,0,0,0,.05-.08h0l-.13-.47a.08.08,0,0,0-.07,0Z"/></g><g class="cls-5"><path class="cls-1" d="M1.81,2.07h0a.08.08,0,0,1,.06,0L2,2.62s0,.06-.05.07h0l-.17,0a.12.12,0,0,0-.07,0,.15.15,0,0,0,0,.07L2,4.06s0,0,0,0a.05.05,0,0,1,0,0l-1,.26h0a.07.07,0,0,1-.06,0L.71,3.84a.06.06,0,0,1,0,0l0,0,.18,0A.09.09,0,0,0,1,3.62L.71,2.4s0-.06.05-.07h0l1-.25h0m0,0h0l-1,.26s-.06,0-.06.09L1,3.62a.09.09,0,0,1-.06.09l-.18,0a.07.07,0,0,0-.06.09l.12.5A.07.07,0,0,0,.9,4.4h0l1-.26A.07.07,0,0,0,2,4.05l-.3-1.21a.08.08,0,0,1,.06-.09L2,2.7A.07.07,0,0,0,2,2.61l-.13-.5s0-.06-.07,0Z"/></g><g class="cls-6"><path class="cls-1" d="M1.88,2h0a.06.06,0,0,1,.06,0l.12.55a.06.06,0,0,1,0,0l0,0-.2,0a.1.1,0,0,0-.08.12L2,4.14a.08.08,0,0,1,0,.08H2L.84,4.45h0a.06.06,0,0,1-.06,0L.65,3.86s0-.06,0-.07h0l.19,0,.07,0a.12.12,0,0,0,0-.08L.69,2.31a.06.06,0,0,1,0,0l.05,0L1.87,2h0m0,0h0L.74,2.22a.1.1,0,0,0-.07.1L1,3.64a.08.08,0,0,1-.06.09l-.2,0a.1.1,0,0,0-.07.1l.12.54a.09.09,0,0,0,.08.07h0L2,4.24A.08.08,0,0,0,2,4.14L1.75,2.83a.08.08,0,0,1,.07-.1l.19,0a.08.08,0,0,0,.07-.1L2,2.05S1.92,2,1.88,2Z"/></g><g class="cls-7"><path class="cls-1" d="M2,1.94S2,2,2,2l.11.59a.09.09,0,0,1-.06.07l-.21,0a.12.12,0,0,0-.1.13L2,4.24A.06.06,0,0,1,2,4.31L.75,4.52h0a.06.06,0,0,1-.06,0L.57,3.88a.06.06,0,0,1,0,0,.05.05,0,0,1,.05,0l.21,0a.1.1,0,0,0,.07,0,.08.08,0,0,0,0-.08L.68,2.22s0-.07.06-.07L2,1.94H2m0,0H2L.74,2.13a.08.08,0,0,0-.08.1L.91,3.65a.09.09,0,0,1-.08.1l-.21,0a.08.08,0,0,0-.07.1l.1.59a.1.1,0,0,0,.09.07h0L2,4.33a.09.09,0,0,0,.08-.09L1.8,2.81a.08.08,0,0,1,.07-.1l.21,0a.08.08,0,0,0,.08-.1h0L2.05,2A.08.08,0,0,0,2,1.91Z"/></g><g class="cls-8"><path class="cls-1" d="M2.06,1.86a.08.08,0,0,1,.07,0l.08.65s0,0,0,0a.05.05,0,0,1-.05,0l-.22,0a.12.12,0,0,0-.11.14L2,4.34A.07.07,0,0,1,2,4.41L.66,4.59h0a.08.08,0,0,1-.07,0L.49,3.9a.07.07,0,0,1,0,0l.05,0,.23,0a.12.12,0,0,0,.08,0,.16.16,0,0,0,0-.09L.67,2.12a.08.08,0,0,1,0-.05l0,0,1.32-.18h0m0,0H2L.73,2a.09.09,0,0,0-.08.1h0L.86,3.67a.08.08,0,0,1-.08.1h0l-.23,0a.12.12,0,0,0-.09.11h0l.09.64a.1.1,0,0,0,.1.08h0L2,4.44a.08.08,0,0,0,.08-.1h0L1.84,2.79a.1.1,0,0,1,.09-.1l.23,0a.1.1,0,0,0,.08-.11l-.09-.64a.11.11,0,0,0-.09-.08Z"/></g><g class="cls-9"><path class="cls-1" d="M2.16,1.79a.07.07,0,0,1,.07.06l.07.69a.06.06,0,0,1-.06.07h0L2,2.64a.11.11,0,0,0-.09,0,.08.08,0,0,0,0,.09L2,4.45A.07.07,0,0,1,2,4.52H2L.56,4.67h0s-.07,0-.07-.06L.4,3.92a.07.07,0,0,1,.07-.07h0l.25,0a.13.13,0,0,0,.12-.14L.67,2a.09.09,0,0,1,0,0l.06,0,1.41-.15h0m0,0h0L.73,1.91A.09.09,0,0,0,.64,2L.81,3.68a.11.11,0,0,1-.1.11l-.24,0a.12.12,0,0,0-.1.11l.07.69a.11.11,0,0,0,.11.09h0L2,4.55a.1.1,0,0,0,.09-.11L1.9,2.78A.1.1,0,0,1,2,2.67l.25,0a.1.1,0,0,0,.1-.1h0l-.08-.7a.1.1,0,0,0-.1-.08Z"/></g><g class="cls-10"><path class="cls-1" d="M2.27,1.71a.08.08,0,0,1,.08.07l0,.74a.07.07,0,0,1-.08.08l-.26,0a.15.15,0,0,0-.14.15l.13,1.79c0,.05,0,.08-.08.08L.44,4.75h0a.08.08,0,0,1-.08-.07l0-.75a.06.06,0,0,1,0-.05l0,0,.27,0a.15.15,0,0,0,.14-.15L.66,1.89s0,0,0,0l.06,0,1.52-.11h0m0,0h0l-1.52.1a.11.11,0,0,0-.11.12L.75,3.69a.12.12,0,0,1-.11.12H.38a.13.13,0,0,0-.11.12l.06.74a.1.1,0,0,0,.11.1h0L2,4.68a.13.13,0,0,0,.11-.12L2,2.77a.12.12,0,0,1,.1-.12h.27a.11.11,0,0,0,.1-.12l-.05-.75a.1.1,0,0,0-.11-.09Z"/></g><path class="cls-1" d="M2.39,1.63a.08.08,0,0,1,.08.08l0,.8s0,0,0,.05a.09.09,0,0,1-.06,0H2.14A.16.16,0,0,0,2,2.75l.07,1.94a.05.05,0,0,1,0,0,.06.06,0,0,1-.06,0L.32,4.82h0a.08.08,0,0,1-.09-.07L.2,4a.08.08,0,0,1,0-.05.09.09,0,0,1,.07,0H.57A.16.16,0,0,0,.73,3.7L.66,1.77a.08.08,0,0,1,0-.05.09.09,0,0,1,.06,0l1.65-.06h0m0,0h0l-1.64,0a.13.13,0,0,0-.12.12L.69,3.7a.12.12,0,0,1-.12.12H.28A.12.12,0,0,0,.16,4l0,.8c0,.07.06.12.12.11h0L2,4.81a.12.12,0,0,0,.12-.12L2,2.75a.11.11,0,0,1,.12-.11h.28a.12.12,0,0,0,.12-.12l0-.81a.12.12,0,0,0-.12-.11Z"/><path class="cls-1" d="M2.52,1.56a.09.09,0,0,1,.1.07V2.5a.1.1,0,0,1-.1.08h-.3A.18.18,0,0,0,2,2.74V4.82A.08.08,0,0,1,2,4.9H.18a.08.08,0,0,1-.09-.08V4a.09.09,0,0,1,.09-.08H.49a.17.17,0,0,0,.17-.16V1.63s0-.08.09-.07H2.52m0-.05H.75a.13.13,0,0,0-.13.12V3.72a.12.12,0,0,1-.13.12H.18A.12.12,0,0,0,.05,4v.86A.13.13,0,0,0,.18,5H2a.13.13,0,0,0,.13-.13V2.74a.14.14,0,0,1,.14-.12h.3a.14.14,0,0,0,.14-.12V1.63A.14.14,0,0,0,2.52,1.51Z"/><g class="cls-2"><path class="cls-1" d="M15.8,2.35h0l.08,0,.81.7a.09.09,0,0,1,0,.13.08.08,0,0,1-.07,0l-1,.36h-.06a.11.11,0,0,1-.07,0,.16.16,0,0,1,0-.1l.18-1.06c0-.06,0-.1.09-.1m0,0c-.05,0-.09,0-.1.1l-.17,1.06c0,.09,0,.14.09.14h.06l1-.36c.11,0,.12-.12,0-.19l-.82-.7a.09.09,0,0,0-.08,0Z"/></g><g class="cls-2"><path class="cls-1" d="M16.93,4A.07.07,0,0,1,17,4l.07.2v0l0,0-.82.3h0a.07.07,0,0,1-.06,0l-.07-.19v0l0,0L16.92,4h0m0,0h0l-.82.3a.06.06,0,0,0,0,.08l.07.2s0,0,.06,0h0L17,4.29a.07.07,0,0,0,0-.09L17,4A.05.05,0,0,0,16.93,4Z"/></g><g class="cls-3"><path class="cls-1" d="M15.81,2.29h0a.12.12,0,0,1,.08,0l.85.78a.11.11,0,0,1,0,.15.16.16,0,0,1-.08.05l-1.06.34h-.06a.09.09,0,0,1-.07,0,.14.14,0,0,1,0-.11l.23-1.13c0-.06,0-.1.09-.1m0,0c-.05,0-.09,0-.1.11l-.23,1.13c0,.09,0,.15.1.15h.06l1.07-.34c.11,0,.13-.13,0-.22l-.85-.78a.15.15,0,0,0-.09,0Z"/></g><g class="cls-3"><path class="cls-1" d="M16.94,4h0A.05.05,0,0,1,17,4l.07.21a.06.06,0,0,1,0,.07l-.89.29h0s-.05,0-.05,0L16,4.36a.05.05,0,0,1,0-.07L16.92,4h0m0,0h0L16,4.28a.05.05,0,0,0,0,.08l.07.22s0,0,.06,0h0L17,4.33a.07.07,0,0,0,0-.08L17,4A.07.07,0,0,0,16.94,4Z"/></g><g class="cls-4"><path class="cls-1" d="M15.82,2.22h0a.11.11,0,0,1,.09,0l.89.87a.13.13,0,0,1,0,.12.12.12,0,0,1-.09.08l-1.16.33h-.06a.11.11,0,0,1-.08,0,.13.13,0,0,1,0-.12l.28-1.21c0-.06,0-.1.1-.1m0,0c-.05,0-.09,0-.11.12l-.29,1.21c0,.1,0,.16.11.16h.06l1.16-.33a.12.12,0,0,0,.06-.22l-.89-.87a.17.17,0,0,0-.1-.06Z"/></g><g class="cls-4"><path class="cls-1" d="M17,4h0a.07.07,0,0,1,.06,0l.06.24a.06.06,0,0,1,0,.07l-1,.28h0a.07.07,0,0,1-.06,0l-.07-.24a.07.07,0,0,1,0-.07l1-.28h0m0,0h0l-1,.28a.07.07,0,0,0-.05.09h0l.07.23a.08.08,0,0,0,.07,0h0l1-.28a.07.07,0,0,0,.05-.09L17,4.06A.08.08,0,0,0,17,4Z"/></g><g class="cls-5"><path class="cls-1" d="M15.84,2.14h0a.27.27,0,0,1,.1.06l.91,1a.14.14,0,0,1,0,.12.14.14,0,0,1-.11.09l-1.26.31h0a.11.11,0,0,1-.09,0,.15.15,0,0,1,0-.13l.35-1.28c0-.07.06-.11.1-.11m0,0q-.08,0-.12.12l-.35,1.29c0,.11,0,.18.12.18h.06l1.26-.32a.13.13,0,0,0,.07-.23l-.92-1a.16.16,0,0,0-.11-.05Z"/></g><g class="cls-5"><path class="cls-1" d="M17,4.05a.07.07,0,0,1,.06,0l.06.26a.06.06,0,0,1,0,.07L16,4.68h0a.07.07,0,0,1-.06,0l-.06-.26a.06.06,0,0,1,0-.07l1.05-.26h0m0,0h0l-1.05.27a.07.07,0,0,0-.06.09h0l.06.25A.08.08,0,0,0,16,4.7h0l1-.26a.08.08,0,0,0,.06-.1L17,4.09A.07.07,0,0,0,17,4Z"/></g><g class="cls-6"><path class="cls-1" d="M15.86,2.06h0a.14.14,0,0,1,.1.07l.95,1.07a.17.17,0,0,1,.05.14.15.15,0,0,1-.12.08l-1.37.29h0a.15.15,0,0,1-.1,0,.17.17,0,0,1,0-.14l.43-1.37c0-.07.06-.11.11-.11m0,0c-.06,0-.11,0-.13.13L15.3,3.53c0,.12,0,.21.13.21h.05l1.36-.29c.15,0,.18-.14.09-.25L16,2.11A.21.21,0,0,0,15.86,2Z"/></g><g class="cls-6"><path class="cls-1" d="M17,4.07h0a.09.09,0,0,1,.07,0l0,.28s0,0,0,0l0,0-1.14.25h0a.06.06,0,0,1-.06,0l-.06-.28s0-.07.05-.07L17,4.08h0m0,0h0l-1.14.24a.08.08,0,0,0-.07.1l.06.27a.08.08,0,0,0,.08.07h0L17,4.5a.09.09,0,0,0,.06-.1l-.05-.28A.09.09,0,0,0,17,4.06Z"/></g><g class="cls-7"><path class="cls-1" d="M15.88,2h0a.15.15,0,0,1,.12.07l1,1.19a.16.16,0,0,1,.05.15.16.16,0,0,1-.13.08l-1.48.26h0a.16.16,0,0,1-.11-.05.17.17,0,0,1,0-.14l.51-1.46c0-.07.07-.11.12-.11m0,0c-.06,0-.11.05-.14.13l-.51,1.45c-.05.14,0,.23.14.23h.05l1.47-.26c.16,0,.2-.15.1-.27L16,2A.22.22,0,0,0,15.88,2Z"/></g><g class="cls-7"><path class="cls-1" d="M17,4.11h0a.08.08,0,0,1,.07,0l.05.3a.11.11,0,0,1,0,0l0,0-1.23.22h0a.08.08,0,0,1-.07,0l-.05-.3a.08.08,0,0,1,.06-.08L17,4.11h0m0,0h0l-1.24.22a.08.08,0,0,0-.07.1l0,.3a.11.11,0,0,0,.09.08h0L17,4.56a.09.09,0,0,0,.07-.11l-.05-.29A.09.09,0,0,0,17,4.08Z"/></g><g class="cls-8"><path class="cls-1" d="M15.91,1.89h0A.14.14,0,0,1,16,2l1,1.32a.18.18,0,0,1,0,.16.18.18,0,0,1-.14.08l-1.6.23h0a.11.11,0,0,1-.12,0,.17.17,0,0,1,0-.16L15.79,2c0-.07.07-.11.12-.11m0,0a.16.16,0,0,0-.15.13l-.6,1.54c-.06.15,0,.25.14.25h0L17,3.55c.16,0,.21-.15.11-.28L16.06,2a.2.2,0,0,0-.15-.09Z"/></g><g class="cls-8"><path class="cls-1" d="M17,4.14h0a.07.07,0,0,1,.07.06l0,.32s0,.07-.06.08l-1.33.18h0s-.07,0-.07,0l0-.33s0-.07.06-.07L17,4.14h0m0,0h0l-1.33.19a.09.09,0,0,0-.08.11l0,.32a.1.1,0,0,0,.1.08h0L17,4.62a.09.09,0,0,0,.08-.11h0l-.05-.32A.09.09,0,0,0,17,4.11Z"/></g><g class="cls-9"><path class="cls-1" d="M15.94,1.79h0a.17.17,0,0,1,.14.09l1,1.45a.16.16,0,0,1,0,.17.14.14,0,0,1-.14.08l-1.73.19h0a.2.2,0,0,1-.14-.06.21.21,0,0,1,0-.17l.7-1.64A.16.16,0,0,1,16,1.79m0,0a.19.19,0,0,0-.17.13l-.7,1.64c-.07.15,0,.27.16.27h0L17,3.62c.18,0,.24-.16.13-.31l-1-1.45a.19.19,0,0,0-.16-.1Z"/></g><g class="cls-9"><path class="cls-1" d="M17,4.17a.08.08,0,0,1,.08.07l0,.35a.09.09,0,0,1,0,0l0,0-1.45.15h0a.08.08,0,0,1-.08-.07l0-.35a.08.08,0,0,1,.06-.08L17,4.17h0m0,0h0l-1.44.15a.1.1,0,0,0-.09.12l0,.35a.11.11,0,0,0,.11.09h0L17,4.7a.1.1,0,0,0,.09-.12l0-.34a.11.11,0,0,0-.11-.1Z"/></g><g class="cls-10"><path class="cls-1" d="M16,1.68h0a.21.21,0,0,1,.14.1l1.05,1.61a.16.16,0,0,1,0,.18.16.16,0,0,1-.16.08l-1.86.13h0A.2.2,0,0,1,15,3.72a.23.23,0,0,1,0-.18l.82-1.74c0-.07.09-.12.15-.12m0,0c-.07,0-.13,0-.18.14L15,3.52c-.08.17,0,.3.18.3h0l1.86-.13c.2,0,.27-.16.16-.32L16.16,1.76A.26.26,0,0,0,16,1.65Z"/></g><g class="cls-10"><path class="cls-1" d="M17,4.21a.07.07,0,0,1,.07.07l0,.38a.08.08,0,0,1-.07.08l-1.56.11h0a.08.08,0,0,1-.08-.07l0-.38a.08.08,0,0,1,.08-.08L17,4.21h0m0,0h0l-1.56.1a.11.11,0,0,0-.1.12h0l0,.38a.12.12,0,0,0,.12.1h0L17,4.77a.11.11,0,0,0,.11-.11h0l0-.37A.11.11,0,0,0,17,4.17Z"/></g><path class="cls-1" d="M16,1.57h0a.21.21,0,0,1,.16.11l1.07,1.77a.2.2,0,0,1,0,.19.22.22,0,0,1-.18.09l-2,.07h0a.19.19,0,0,1-.17-.08s0-.11,0-.19l1-1.83c0-.08.1-.13.15-.13m0,0q-.11,0-.18.15L14.9,3.51c-.09.18,0,.33.19.33h0l2-.07c.21,0,.29-.16.18-.34L16.22,1.66A.24.24,0,0,0,16,1.53Z"/><path class="cls-1" d="M17,4.25a.09.09,0,0,1,.08.08v.4a.07.07,0,0,1-.07.09l-1.68.06h0a.08.08,0,0,1-.08-.08l0-.41a.08.08,0,0,1,0,0,.09.09,0,0,1,.06,0L17,4.25h0m0,0h0l-1.68.06a.12.12,0,0,0-.12.13l0,.4a.12.12,0,0,0,.12.12h0L17,4.86a.13.13,0,0,0,.11-.13v-.4A.12.12,0,0,0,17,4.21Z"/><path class="cls-1" d="M16.09,1.46a.19.19,0,0,1,.16.12l1.09,1.94a.23.23,0,0,1,0,.21.21.21,0,0,1-.19.08H15a.21.21,0,0,1-.19-.08.2.2,0,0,1,0-.21l1.09-1.94a.19.19,0,0,1,.16-.12m0,0a.25.25,0,0,0-.2.14L14.8,3.5c-.11.19,0,.35.21.35h2.16a.22.22,0,0,0,.21-.35L16.29,1.56a.24.24,0,0,0-.2-.14Z"/><path class="cls-1" d="M17,4.29a.09.09,0,0,1,.09.09v.44A.09.09,0,0,1,17,4.9h-1.8a.09.09,0,0,1-.09-.08V4.38a.09.09,0,0,1,.09-.09H17m0,0h-1.8a.13.13,0,0,0-.13.13v.44a.13.13,0,0,0,.13.13H17a.13.13,0,0,0,.13-.13V4.38A.13.13,0,0,0,17,4.25Z"/></g></svg>