<svg xmlns="http://www.w3.org/2000/svg" width="1034.02" height="1020.27" viewBox="0 0 1034.02 1020.27"><defs><style>.a{fill:#fdfdfd;}.b{fill:#438bc4;}.c{fill:#438cc4;}.d{fill:#231f20;}.e{fill:#98cae7;}.f{fill:#418cc4;}.g{fill:#448cc4;}.h{fill:#99cae7;}.i{fill:#4687ba;}.j{fill:#5597ca;}.k{fill:#fefefe;}.l{fill:#f9f9f9;}.m{fill:#fbfbfb;}.n{fill:#f8f9f9;}.o{fill:#fafafa;}.p{fill:#fff;}</style></defs><title>NEIAAC</title><text x="-204.48" y="-78.46"/><path class="a" d="M689,548.52c0,2-.81,2.25-2.37,2a9,9,0,0,0-.91,0c-0.88-.53-3,1.2-3-1.7,0-2.1.51-3,2.64-2.59a4,4,0,0,0,1.19,0C688.22,546,689,546.48,689,548.52Z" transform="translate(-204.48 -78.46)"/><path class="a" d="M701.94,548.57c0.07,2.12-1,2.13-2.42,2-0.24,0-.48,0-0.91,0-0.8-.6-2.84,1.23-3-1.52-0.09-2,.31-3.22,2.66-2.77a3.66,3.66,0,0,0,1.19,0C701.34,546,701.87,546.66,701.94,548.57Z" transform="translate(-204.48 -78.46)"/><path class="a" d="M717,548.57c-0.08,1.46-.3,2.25-2,2a17.17,17.17,0,0,0-2.38,0c-0.56,0-1.12,0-1.67,0-1.48.12-2.5,0.08-2.46-2s0.64-2.52,2.47-2.32a15.22,15.22,0,0,0,3.57,0C716.45,546,717.16,546.61,717,548.57Z" transform="translate(-204.48 -78.46)"/><path class="a" d="M730,548.45c0,2.56-1.41,2.11-2.87,2.11H726.7c-1.42-.09-3.21.71-3-2.12,0.12-1.84.62-2.42,2.33-2.18a6,6,0,0,0,1.2,0C728.75,546.19,730,546,730,548.45Z" transform="translate(-204.48 -78.46)"/><path class="a" d="M732.94,758.89c0,2.32-.74,2.71-2.81,2.68q-13-.15-25.91,0c-2,0-2.52-.41-2.51-2.45,0.07-32.64,0-65.27.1-97.9,0-2.16-.49-2.84-2.7-2.71-3.5.2-7,0-10.55,0.08-1.26,0-1.81-.21-1.8-1.66q0.12-12.48,0-25c0-1.45.54-1.69,1.82-1.69,14.15,0,28.31.07,42.47,0,2.08,0,1.83,1.11,1.83,2.41q0,31.66,0,63.34C732.88,717,732.84,737.93,732.94,758.89Z" transform="translate(-204.48 -78.46)"/><path class="a" d="M735.84,600.58c0,10.5-9,19.17-19.82,19.18a19.47,19.47,0,0,1-19.54-19.17A19.68,19.68,0,1,1,735.84,600.58Z" transform="translate(-204.48 -78.46)"/><path class="a" d="M745,547.92c0,2.64.06,2.64-3.67,2.64a9.73,9.73,0,0,0-1.43,0c-1.57.24-2.27-.18-2.17-2,0.08-1.53.07-2.64,2.11-2.33a14.27,14.27,0,0,0,3.33,0C744.41,546.15,745,546.47,745,547.92Z" transform="translate(-204.48 -78.46)"/><path class="b" d="M568.32,372.48a6.31,6.31,0,0,0,1.86,2.14Q615,419.51,660,464.33a10.51,10.51,0,0,1,3.36,7c0.17,2.22.52,4.43,0.85,7.14-0.89-.85-1.53-1.44-2.15-2.06q-46-46-91.92-92c-1.69-1.7-2.55-1.91-4.38-.08q-88.82,89-177.71,177.9c-1.81,1.81-3.13,2.17-5.43,1-3.85-1.92-3.93-1.75-.93-4.75q92-92,183.9-183.92c0.65-.65,1.56-1.13,1.79-2.15h1Z" transform="translate(-204.48 -78.46)"/><path class="c" d="M204.48,735.36c1-.18,1.39-1,2-1.62q13.75-13.71,27.46-27.46a8.67,8.67,0,0,1,2-1.87c-0.11,4.37,1.91,8.69-2.41,12.5-6.22,5.49-11.81,11.69-17.74,17.5-1.2,1.18-1.2,1.81,0,3,6.28,6.15,12.42,12.44,18.7,18.59a5.44,5.44,0,0,1,1.91,4.6c-0.15,2.19,0,4.4,0,6.72a4.38,4.38,0,0,1-2.24-1.69Q220.26,751.82,206.45,738a5.44,5.44,0,0,0-2-1.69v-1Z" transform="translate(-204.48 -78.46)"/><path class="d" d="M743.14,546.25a14.27,14.27,0,0,1-3.33,0c-2-.31-2,0.8-2.11,2.33-0.1,1.8.6,2.22,2.17,2a9.73,9.73,0,0,1,1.43,0c3.73,0,3.63,0,3.67-2.64C745,546.47,744.41,546.15,743.14,546.25ZM716,580.8a19.71,19.71,0,0,0-19.53,19.79A19.47,19.47,0,0,0,716,619.76c10.84,0,19.8-8.68,19.82-19.18A19.85,19.85,0,0,0,716,580.8ZM732.88,696q0-31.67,0-63.34c0-1.3.25-2.42-1.83-2.41-14.16.09-28.32,0.06-42.47,0-1.28,0-1.83.24-1.82,1.69q0.09,12.46,0,25c0,1.45.54,1.68,1.8,1.66,3.52-.08,7,0.12,10.55-0.08,2.21-.13,2.71.55,2.7,2.71-0.07,32.63,0,65.26-.1,97.9,0,2,.54,2.48,2.51,2.45q12.95-.16,25.91,0c2.07,0,2.83-.36,2.81-2.68C732.84,737.93,732.88,717,732.88,696ZM686.5,546.28a4,4,0,0,1-1.19,0c-2.13-.39-2.68.49-2.64,2.59,0.06,2.9,2.15,1.17,3,1.7a9,9,0,0,1,.91,0c1.56,0.2,2.38,0,2.37-2S688.22,546,686.5,546.28Zm13,0a3.66,3.66,0,0,1-1.19,0c-2.35-.45-2.75.73-2.66,2.77,0.11,2.75,2.15.92,3,1.52,0.43,0,.67,0,0.91,0,1.46,0.13,2.49.12,2.42-2C701.87,546.66,701.34,546,699.51,546.28Zm15.1,0a15.22,15.22,0,0,1-3.57,0c-1.83-.2-2.42.37-2.47,2.32s1,2.13,2.46,2c0.55,0,1.11,0,1.67,0a17.17,17.17,0,0,1,2.38,0c1.66,0.24,1.88-.55,2-2C717.16,546.61,716.45,546,714.61,546.24Zm12.58,0a6,6,0,0,1-1.2,0c-1.71-.24-2.21.34-2.33,2.18-0.17,2.83,1.62,2,3,2.12h0.48c1.46,0,2.9.45,2.87-2.11S728.75,546.19,727.19,546.27Z" transform="translate(-204.48 -78.46)"/><path class="d" d="M757,626.38c-2,0-4.52.87-5.77-.37s-0.37-3.8-.38-5.77q-0.11-18-.07-36c0-.83-0.38-1.75.32-2.5l0.15-.08c2.51-.57,5.06-0.14,7.59-0.23a5.87,5.87,0,0,0,4.09-3.67c1.22-2.85,1-5.88,1.15-8.87,0,0,0,0,0,0a1.81,1.81,0,0,1-.3-1.34c-0.42-3.82-2.15-5.6-6-6.11-0.47,0-.94.07-1.41,0-5.89-.15-5.89-0.16-5.5-6.13,0-4.38-.12-8.76,0-13.13,0-1.5-.41-1.87-1.87-1.85-4.37.08-8.75,0-13.13,0h-10.1c-3.44,0-6.87,0-10.3.1-1.42,0-1.73-.46-1.71-1.77,0.07-4.48,0-8.95,0-13.43,0-17.18,0-34.36,0-51.55,0-1.7-.27-2.44-2.18-2.28a53.91,53.91,0,0,1-7.19,0c-1.56-.09-1.93.44-1.71,1.9,0.61,4,1.11,8.07,1.66,12.1q3.5,25.86,7,51.72c0.45,3.31.38,3.32-3,3.23-10.64,0-21.27.11-31.91,0-2.19,0-2.66.65-2.6,2.7,0.14,5.35,0,10.71.08,16.07,0,1.66-.47,2.35-2.16,2.17a19.6,19.6,0,0,0-2.15.11c-3.72,0-7.1,1-8.2,4.85-1.25,4.36-1.55,8.87,1.79,12.7,1.82,2.09,4.22,2.68,6.91,2.67,4.35,0,3.76-.59,3.77,3.83,0,12.8,0,25.59.06,38.39,0,2.18-.63,2.87-2.68,2.57a13.73,13.73,0,0,0-2.4,0c-3.57.09-6.28,1.73-7.39,5.08A15.13,15.13,0,0,0,663,645a7.48,7.48,0,0,0,7.85,3.44c2.31-.32,3.09.34,3.08,2.9q-0.13,74.25-.06,148.51V802c-0.66.41-.91-0.16-1.21-0.45q-18-17.66-35.9-35.34a11.76,11.76,0,0,1-.88-1.1l-5.42-4.84a95.24,95.24,0,0,0,4,10.76c0.64,1.47.58,2.29-1,3.24a114.63,114.63,0,0,1-16.9,8.93c-23.66,9.61-48.22,12.11-73.35,8.37-23.78-3.54-44.11-13.94-60.11-32.18a3.14,3.14,0,0,0-2.72-1c-12.72,0-25.44,0-38.16,0-1.79,0-2.42.34-2.39,2.3,0.12,8.4,0,16.8.06,25.2,0,1.2.09,2.11-1.67,2.1q-27.23-.09-54.47,0c-1.47,0-1.7-.6-1.67-1.85,0.08-2.56-.08-5.13.07-7.68,0.08-1.56-.48-1.86-1.9-1.81-3,.1-6.08,0-9.11.06-1.53.06-2.07-.3-2-2,0.11-4.79,0-9.59.08-14.39,0-1.59-.44-2-2-2q-29,.07-58.07,0c-1.68,0-2.12.41-2.1,2.1,0.1,8,0,16,0,24,0,3.48,0,3.48-3.35,3.48H293.38l-0.28.63c0.59,0.5,1.22,1,1.77,1.5L338,832.37,390.6,884l54.92,54,52.89,51.93q34.83,34.21,69.6,68.49c1.43,1.41,2.11,1.62,3.66.07q34.56-34.68,69.26-69.2,53.49-53.41,107-106.78a9,9,0,0,0,2.93-7.11q-0.13-111.71-.07-223.42a11.37,11.37,0,0,0,0-1.43c-0.21-1.5.26-2.15,1.92-2,2.07,0.14,4.15,0,6.23,0a7.1,7.1,0,0,0,3.67-3.91,22.14,22.14,0,0,0,.62-13.65C762.44,627.7,760.34,626.48,757,626.38Zm-33.31-77.94c0.12-1.84.62-2.42,2.33-2.18a6,6,0,0,0,1.2,0c1.56-.08,2.83-0.27,2.86,2.18s-1.41,2.11-2.87,2.11H726.7C725.28,550.47,723.49,551.27,723.66,548.44ZM711,546.24a15.22,15.22,0,0,0,3.57,0c1.84-.2,2.55.37,2.43,2.33-0.08,1.46-.3,2.25-2,2a17.17,17.17,0,0,0-2.38,0c-0.56,0-1.12,0-1.67,0-1.48.12-2.5,0.08-2.46-2S709.21,546,711,546.24Zm-12.72,0a3.66,3.66,0,0,0,1.19,0c1.83-.3,2.36.38,2.43,2.29,0.07,2.12-1,2.13-2.42,2-0.24,0-.48,0-0.91,0-0.8-.6-2.84,1.23-3-1.52C695.57,547,696,545.83,698.32,546.28Zm-12.62,4.29c-0.88-.53-3,1.2-3-1.7,0-2.1.51-3,2.64-2.59a4,4,0,0,0,1.19,0c1.72-.23,2.47.2,2.48,2.24s-0.81,2.25-2.37,2A9,9,0,0,0,685.7,550.57Zm44.43,211q-13-.15-25.91,0c-2,0-2.52-.41-2.51-2.45,0.07-32.64,0-65.27.1-97.9,0-2.16-.49-2.84-2.7-2.71-3.5.2-7,0-10.55,0.08-1.26,0-1.81-.21-1.8-1.66q0.12-12.48,0-25c0-1.45.54-1.69,1.82-1.69,14.15,0,28.31.07,42.47,0,2.08,0,1.83,1.11,1.83,2.41q0,31.66,0,63.34c0,21,0,41.91.06,62.87C733,761.21,732.2,761.6,730.13,761.57ZM716,619.76a19.47,19.47,0,0,1-19.54-19.17,19.68,19.68,0,1,1,39.36,0C735.82,611.08,726.86,619.75,716,619.76Zm25.28-69.2a9.73,9.73,0,0,0-1.43,0c-1.57.24-2.27-.18-2.17-2,0.08-1.53.07-2.64,2.11-2.33a14.27,14.27,0,0,0,3.33,0c1.27-.1,1.85.22,1.83,1.67C744.93,550.56,745,550.56,741.3,550.56Z" transform="translate(-204.48 -78.46)"/><path class="d" d="M689,548.52c0,2-.81,2.25-2.37,2a9,9,0,0,0-.91,0c-0.88-.53-3,1.2-3-1.7,0-2.1.51-3,2.64-2.59a4,4,0,0,0,1.19,0C688.22,546,689,546.48,689,548.52Z" transform="translate(-204.48 -78.46)"/><path class="d" d="M701.94,548.57c0.07,2.12-1,2.13-2.42,2-0.24,0-.48,0-0.91,0-0.8-.6-2.84,1.23-3-1.52-0.09-2,.31-3.22,2.66-2.77a3.66,3.66,0,0,0,1.19,0C701.34,546,701.87,546.66,701.94,548.57Z" transform="translate(-204.48 -78.46)"/><path class="d" d="M717,548.57c-0.08,1.46-.3,2.25-2,2a17.17,17.17,0,0,0-2.38,0c-0.56,0-1.12,0-1.67,0-1.48.12-2.5,0.08-2.46-2s0.64-2.52,2.47-2.32a15.22,15.22,0,0,0,3.57,0C716.45,546,717.16,546.61,717,548.57Z" transform="translate(-204.48 -78.46)"/><path class="d" d="M730,548.45c0,2.56-1.41,2.11-2.87,2.11H726.7c-1.42-.09-3.21.71-3-2.12,0.12-1.84.62-2.42,2.33-2.18a6,6,0,0,0,1.2,0C728.75,546.19,730,546,730,548.45Z" transform="translate(-204.48 -78.46)"/><path class="d" d="M732.94,758.89c0,2.32-.74,2.71-2.81,2.68q-13-.15-25.91,0c-2,0-2.52-.41-2.51-2.45,0.07-32.64,0-65.27.1-97.9,0-2.16-.49-2.84-2.7-2.71-3.5.2-7,0-10.55,0.08-1.26,0-1.81-.21-1.8-1.66q0.12-12.48,0-25c0-1.45.54-1.69,1.82-1.69,14.15,0,28.31.07,42.47,0,2.08,0,1.83,1.11,1.83,2.41q0,31.66,0,63.34C732.88,717,732.84,737.93,732.94,758.89Z" transform="translate(-204.48 -78.46)"/><path class="d" d="M735.84,600.58c0,10.5-9,19.17-19.82,19.18a19.47,19.47,0,0,1-19.54-19.17A19.68,19.68,0,1,1,735.84,600.58Z" transform="translate(-204.48 -78.46)"/><path class="d" d="M745,547.92c0,2.64.06,2.64-3.67,2.64a9.73,9.73,0,0,0-1.43,0c-1.57.24-2.27-.18-2.17-2,0.08-1.53.07-2.64,2.11-2.33a14.27,14.27,0,0,0,3.33,0C744.41,546.15,745,546.47,745,547.92Z" transform="translate(-204.48 -78.46)"/><path class="d" d="M689,548.52c0,2-.81,2.25-2.37,2a9,9,0,0,0-.91,0c-0.88-.53-3,1.2-3-1.7,0-2.1.51-3,2.64-2.59a4,4,0,0,0,1.19,0C688.22,546,689,546.48,689,548.52Z" transform="translate(-204.48 -78.46)"/><path class="d" d="M701.94,548.57c0.07,2.12-1,2.13-2.42,2-0.24,0-.48,0-0.91,0-0.8-.6-2.84,1.23-3-1.52-0.09-2,.31-3.22,2.66-2.77a3.66,3.66,0,0,0,1.19,0C701.34,546,701.87,546.66,701.94,548.57Z" transform="translate(-204.48 -78.46)"/><path class="d" d="M708.32,540.36c-10.64,0-21.27.11-31.91,0-2.19,0-2.66.65-2.6,2.7,0.14,5.35,0,10.71.08,16.07,0,1.66-.47,2.35-2.16,2.17a19.6,19.6,0,0,0-2.15.11c-3.72,0-7.1,1-8.2,4.85-1.25,4.36-1.55,8.87,1.79,12.7,1.82,2.09,4.22,2.68,6.91,2.67,4.35,0,3.76-.59,3.77,3.83,0,12.8,0,25.59.06,38.39,0,2.18-.63,2.87-2.68,2.57a13.73,13.73,0,0,0-2.4,0c-3.57.09-6.28,1.73-7.39,5.08A15.13,15.13,0,0,0,663,645a7.48,7.48,0,0,0,7.85,3.44c2.31-.32,3.09.34,3.08,2.9q-0.13,74.25-.06,148.51V802c-0.66.41-.91-0.16-1.21-0.45q-18-17.66-35.9-35.34a11.76,11.76,0,0,1-.88-1.1c1.25,0.08,1.94,1,2.72,1.81,3.92,3.88,7.87,7.74,11.7,11.71,7,7.25,14.64,13.84,21.62,21.11a1.36,1.36,0,0,0,1,.62c0.55-.59.28-1.34,0.28-2q0-72.79,0-145.6c0-3.47,0-3.61-3.43-3.54a8.09,8.09,0,0,1-7.55-4.22,15.62,15.62,0,0,1-1.55-13.59c1.21-3.56,4.3-5.63,8.33-5.71s4.21,0.31,4.2-4.26q0-17.76,0-35.51c0-3.31,0-3.31-3.31-3.48-6.42-.33-10.63-5.2-10-11.59,0.11-1.11.26-2.23,0.43-3.33a7.71,7.71,0,0,1,6.91-6.61c1.19-.12,2.38-0.34,3.57-0.4,1.88-.11,2.41-1.11,2.39-2.83,0-4.72-.05-9.43,0-14.15,0-3.26.53-3.76,3.79-3.78,9.43,0,18.87,0,28.3,0A5.64,5.64,0,0,1,708.32,540.36Z" transform="translate(-204.48 -78.46)"/><path class="d" d="M717,548.57c-0.08,1.46-.3,2.25-2,2a17.17,17.17,0,0,0-2.38,0c-0.56,0-1.12,0-1.67,0-1.48.12-2.5,0.08-2.46-2s0.64-2.52,2.47-2.32a15.22,15.22,0,0,0,3.57,0C716.45,546,717.16,546.61,717,548.57Z" transform="translate(-204.48 -78.46)"/><path class="d" d="M730,548.45c0,2.56-1.41,2.11-2.87,2.11H726.7c-1.42-.09-3.21.71-3-2.12,0.12-1.84.62-2.42,2.33-2.18a6,6,0,0,0,1.2,0C728.75,546.19,730,546,730,548.45Z" transform="translate(-204.48 -78.46)"/><path class="d" d="M732.94,758.89c0,2.32-.74,2.71-2.81,2.68q-13-.15-25.91,0c-2,0-2.52-.41-2.51-2.45,0.07-32.64,0-65.27.1-97.9,0-2.16-.49-2.84-2.7-2.71-3.5.2-7,0-10.55,0.08-1.26,0-1.81-.21-1.8-1.66q0.12-12.48,0-25c0-1.45.54-1.69,1.82-1.69,14.15,0,28.31.07,42.47,0,2.08,0,1.83,1.11,1.83,2.41q0,31.66,0,63.34C732.88,717,732.84,737.93,732.94,758.89Z" transform="translate(-204.48 -78.46)"/><path class="d" d="M735.84,540.32h-10.1A18.35,18.35,0,0,1,735.84,540.32Z" transform="translate(-204.48 -78.46)"/><path class="d" d="M735.84,600.58c0,10.5-9,19.17-19.82,19.18a19.47,19.47,0,0,1-19.54-19.17A19.68,19.68,0,1,1,735.84,600.58Z" transform="translate(-204.48 -78.46)"/><path class="d" d="M745,547.92c0,2.64.06,2.64-3.67,2.64a9.73,9.73,0,0,0-1.43,0c-1.57.24-2.27-.18-2.17-2,0.08-1.53.07-2.64,2.11-2.33a14.27,14.27,0,0,0,3.33,0C744.41,546.15,745,546.47,745,547.92Z" transform="translate(-204.48 -78.46)"/><path class="d" d="M757.78,561.42c-0.47,0-.94.07-1.41,0-5.89-.15-5.89-0.16-5.5-6.13a7.83,7.83,0,0,1,.56,3.28c0,1.44.54,2.34,2.09,2.25S756.35,561.34,757.78,561.42Z" transform="translate(-204.48 -78.46)"/><path class="d" d="M758.81,581.43c-2.53.27-5.07-.14-7.59,0.23C753.73,581.09,756.28,581.52,758.81,581.43Z" transform="translate(-204.48 -78.46)"/><path class="d" d="M762.9,577.76c1.22-2.85,1-5.88,1.15-8.87C765.34,571.36,764.76,575.86,762.9,577.76Z" transform="translate(-204.48 -78.46)"/><path class="d" d="M763,645.17c-0.89,1.74-2,3.06-4.09,3.25a7.1,7.1,0,0,0,3.67-3.91,22.14,22.14,0,0,0,.62-13.65c-0.79-3.16-2.89-4.38-6.26-4.48-2,0-4.52.87-5.77-.37s-0.37-3.8-.38-5.77q-0.11-18-.07-36c0-.83-0.38-1.75.32-2.5-0.08,1.25-.11,2.5-0.1,3.74,0,0.92,0,1.84.07,2.76,0.1,2.53.27,5.06,0.34,7.59,0.25,8.63.07,17.27,0.08,25.91,0,3.9,0,3.9,3.8,3.92,6.6,0.05,9.13,2.57,9.15,9.16C764.41,638.33,764.73,641.87,763,645.17Z" transform="translate(-204.48 -78.46)"/><path class="d" d="M241.69,668.67q0-49.92-.05-99.83c0-2.3.52-3,2.87-2.9,7.28,0.17,14.56.13,21.84,0a3.7,3.7,0,0,1,3.61,2c3.69,5.7,7.61,11.25,11.25,17,1.17,1.85,2.09,1.92,3.92,1,10.47-5.43,21-10.8,31.68-15.76,14.27-6.62,29.19-8.4,44.65-6.8,13.65,1.41,25.84,6.33,36,15.69,10.47,9.62,16.33,21.86,19.64,35.49A107.72,107.72,0,0,1,420,639.93q0,64.44.06,128.87c0,2-.38,2.64-2.55,2.62q-20.16-.18-40.32,0c-2.13,0-2.76-.45-2.75-2.69q0.11-65.16,0-130.31c0-8.16-1.36-16.07-5.09-23.41-5.79-11.39-15.53-16.69-27.89-17.87-17.65-1.69-32.52,4.75-45.85,15.68-3,2.43-6.68,4.58-8.14,8-1.23,2.83-.38,6.6-0.38,9.95q0,69,0,138c0,2.15-.49,2.74-2.69,2.72q-19.92-.17-39.84,0c-2.31,0-3-.4-3-2.91C241.72,735.23,241.69,701.95,241.69,668.67Z" transform="translate(-204.48 -78.46)"/><path class="d" d="M567.7,674.63H499.79c-3.14,0-3.21,0-3,3.11,0.91,13,3.23,25.66,9.53,37.27,8.72,16,22.62,24.47,40.35,27,19.4,2.81,37.18-2,53.92-11.66,3.67-2.11,3.71-2,5.28,1.89,3.51,8.73,7,17.47,10.6,26.14,0.66,1.58.31,2.15-1,2.92-14,8.12-29.08,12.53-45,14.31-14.31,1.59-28.57,1.51-42.68-1.65-32.54-7.29-54.82-26.69-67.39-57.42-7.46-18.25-9.54-37.39-8.58-56.87,1.1-22.15,7.73-42.51,21.77-60,15.07-18.75,34.83-29.6,58.5-33.34,18.06-2.85,35.9-1.88,53.11,4.59,26.68,10,42.51,29.76,49.87,56.81,2.62,9.62,3.47,19.47,3.61,29.41,0.07,5,0,10.08.22,15.11,0.07,1.88-.55,2.21-2.28,2.21q-34.43-.09-68.86,0v0.16Z" transform="translate(-204.48 -78.46)"/><path class="e" d="M560.71,411.5V416q0,70.55,0,141.09c0,3.26,0,3.09-3.16,2.78a91.29,91.29,0,0,0-15.09-.07A98.19,98.19,0,0,0,526.37,562c-1.25.3-1.81-.23-1.71-1.51,0-.56,0-1.12,0-1.68q0-30.47,0-60.95v-2.59l-0.5-.32-85.93,91.47h39.9c-2.47,2.75-4.64,5.12-6.76,7.53a92.36,92.36,0,0,0-16,26c-0.82,2-1.77,2.78-4,2.66a117.17,117.17,0,0,0-12,0c-2.11.1-2.92-.69-3.43-2.63a75.86,75.86,0,0,0-13.33-27.36A61.07,61.07,0,0,0,404,576.44c-1.8-1-2.14-1.68-.55-3.28Q417.76,558.67,432,544q15.9-16.31,31.73-32.68l30.54-31.5L526.14,447q15.28-15.75,30.56-31.48C558,414.18,558.85,412.37,560.71,411.5Z" transform="translate(-204.48 -78.46)"/><path class="f" d="M708.32,540.36c-10.64,0-21.27.11-31.91,0-2.19,0-2.66.65-2.6,2.7,0.14,5.35,0,10.71.08,16.07,0,1.66-.47,2.35-2.16,2.17a19.6,19.6,0,0,0-2.15.11c-3.72,0-7.1,1-8.2,4.85-1.25,4.36-1.55,8.87,1.79,12.7,1.82,2.09,4.22,2.68,6.91,2.67,4.35,0,3.76-.59,3.77,3.83,0,12.8,0,25.59.06,38.39,0,2.18-.63,2.87-2.68,2.57a13.73,13.73,0,0,0-2.4,0c-3.57.09-6.28,1.73-7.39,5.08A15.13,15.13,0,0,0,663,645a7.48,7.48,0,0,0,7.85,3.44c2.31-.32,3.09.34,3.08,2.9q-0.13,74.25-.06,148.51V802c-0.66.41-.91-0.16-1.21-0.45q-18-17.66-35.9-35.34a11.76,11.76,0,0,1-.88-1.1q0-36-.08-72c0-1.6.5-2,2-2,4.79,0,9.59-.13,14.38-0.13,1.81,0,2.82-.62,2.86-2.54,0.49-22.73.79-45.42-8.85-66.83A102.25,102.25,0,0,0,636,603.85a12.24,12.24,0,0,1-.78-4.69c-0.15-11.66,1-23.3.56-35,0-.87.24-1.77-0.26-2.58-1.19,0-2.39-.08-3.59-0.09a8.81,8.81,0,0,1-9-8.57c-0.09-1.68-.08-3.36,0-5a7.5,7.5,0,0,1,7.26-7.45c1.75-.11,3.51-0.08,5.27-0.11,0.67-.67.33-1.52,0.34-2.28,0-5.2,0-10.39,0-15.59,0-2.57.23-2.86,2.85-2.92,3.68-.09,7.36,0,11,0h16.56a5.44,5.44,0,0,1,3.46.7l1,0.14c1.93,0.28,2.75-.07,2.41-2.46-2.16-14.93-4.12-29.89-6.15-44.84-0.69-5.14-1.34-10.29-2.08-15.42-0.24-1.65.17-2.29,1.94-2.17a45.54,45.54,0,0,0,6.71,0c2-.16,2.36.58,2.36,2.41-0.07,19.91,0,39.82-.1,59.73,0,2.41.71,2.85,2.94,2.81,8.47-.14,16.93,0,25.4-0.07,1.39,0,1.43.74,1.6,1.79C706.65,528.2,707,534.35,708.32,540.36Z" transform="translate(-204.48 -78.46)"/><path class="b" d="M929.49,737.93q-179.86,179.73-359.6,359.6c-1.69,1.69-2.46,1.51-4-.07Q412.33,943.82,258.73,790.26A5.06,5.06,0,0,1,257,788c3,0,6,0,8.87,0a2,2,0,0,1,1.41.82c0.57,0.56,1.13,1.13,1.7,1.7l296.64,296.63c2.27,2.28,2.27,2.28,4.48.08Q744.7,912.63,919.38,738.06c1.82-1.83,1.64-2.69-.07-4.4q-77-76.89-154-153.87c-0.75-.75-1.34-1.71-2.45-2,1.22-2.85,1-5.88,1.15-8.87v0c0.93,0.21,1.38,1,2,1.64Q847.77,652.2,929.5,733.88C931.16,735.53,931.11,736.31,929.49,737.93Z" transform="translate(-204.48 -78.46)"/><path class="e" d="M669.67,520.24c-10.28,0-20.56.15-30.84,0.05-2.31,0-3,.58-2.89,2.89,0.18,4.93.08,9.88,0,14.82,0,0.79.48,1.78-.57,2.36q0.06-9,.12-18a2.82,2.82,0,0,0-.87-2.14Q621.3,506.64,608,493a3.42,3.42,0,0,0-.7-0.34v83.69c-3-1.8-5.61-3.45-8.31-4.95a86.39,86.39,0,0,0-21.78-8.5c-1.5-.36-2.21-0.87-2.21-2.66q0.09-73.42.05-146.84c0-.39,0-0.77.06-1.21,1.1,0.05,1.51.94,2.08,1.52,10.32,10.48,20.73,20.88,30.89,31.51,6.41,6.71,13,13.23,19.47,19.87q19.5,20,39,40a7.11,7.11,0,0,1,1.76,4.28C668.92,513,669.4,516.59,669.67,520.24Z" transform="translate(-204.48 -78.46)"/><path class="e" d="M886.23,730.63H874.09c-10.71,0-21.43,0-32.14,0a4.51,4.51,0,0,1-3.58-1.48c-8-8.26-16.19-16.35-24.09-24.72-6.53-6.92-13.34-13.56-20-20.37Q777.69,667,761,649.91a3.73,3.73,0,0,0-2.11-1.49,7.1,7.1,0,0,0,3.67-3.91,22.14,22.14,0,0,0,.62-13.65c-0.79-3.16-2.89-4.38-6.26-4.48-2,0-4.52.87-5.77-.37s-0.37-3.8-.38-5.77q-0.11-18-.07-36c0-.83-0.38-1.75.32-2.5a12,12,0,0,1,.07,2.39c-0.08.46-.13,0.91-0.17,1.35a13.27,13.27,0,0,0,.07,2.76c0.46,3.6,2.46,6.52,5.51,9.42,9.33,8.85,18.23,18.16,27.09,27.49,6.39,6.72,13,13.22,19.46,19.86q19.58,20.09,39.18,40.14,19.33,19.81,38.66,39.64C882.64,726.54,884.22,728.4,886.23,730.63Z" transform="translate(-204.48 -78.46)"/><path class="e" d="M307.17,722.45v-2.59c0-14.56.08-29.12-.07-43.67a8.42,8.42,0,0,1,2.73-6.51q5.68-5.68,11.3-11.43,16.56-17,33.09-34c2.45-2.52,4.9-5,7.24-7.66,1.36-1.52,2.13-1.14,3,.47a41.79,41.79,0,0,1,4.63,17.92c0.27,7.67.05,15.36,0.12,23a4.09,4.09,0,0,1-1.37,3.13q-12.87,13.07-25.68,26.21Q325.71,704.11,309.34,721a15.35,15.35,0,0,0-1.39,2Z" transform="translate(-204.48 -78.46)"/><path class="c" d="M353.67,606.39a60.94,60.94,0,0,0-12.08.55c-12.17,1.71-22.49,7.43-31.93,15-2.74,2.19-5.23,4.69-7.92,7A4.87,4.87,0,0,0,300,633q0.06,72.46.09,144.92c0,2.47-.65,3-3,3-12.8-.13-25.59-0.09-38.39,0-1.69,0-2.36-.29-2.39-2.19s0.86-2.12,2.43-2.11c10.32,0.05,20.64,0,31,.08,2.21,0,2.75-.58,2.74-2.76q-0.1-74.14-.1-148.28a5.93,5.93,0,0,1,2.23-4.9c7.8-7,16.19-13.09,26.31-16.22s20.26-3.47,30.33.28A4.58,4.58,0,0,1,353.67,606.39Z" transform="translate(-204.48 -78.46)"/><path class="e" d="M560.71,713.53c0,6.31-.14,12.63.07,18.93,0.09,2.57-.79,3.07-3.11,3-4.23-.18-8.47-0.22-12.7,0-6.57.33-12.06-2.47-17.51-5.55a2.59,2.59,0,0,1-1.42-2.53q0-17.14,0-34.27c0-1.47.48-1.92,1.93-1.91q15.34,0.07,30.68,0c1.75,0,2.13.64,2.11,2.23C560.67,700.11,560.71,706.82,560.71,713.53Z" transform="translate(-204.48 -78.46)"/><path class="c" d="M417.81,598a62.78,62.78,0,0,1,8.76,15.8,91.72,91.72,0,0,1,6.26,33.49c0.12,43.6,0,87.19.11,130.79,0,2.35-.63,2.89-2.92,2.87-12.8-.12-25.6-0.05-38.4-0.06a2.45,2.45,0,0,1-2.34-3.72c0.5-.95,1.43-0.51,2.15-0.51,10.4,0,20.8-.1,31.2,0,2.29,0,2.69-.7,2.69-2.8q-0.09-67.43-.06-134.87A103.31,103.31,0,0,0,418,599.72,1.79,1.79,0,0,1,417.81,598Z" transform="translate(-204.48 -78.46)"/><path class="e" d="M369.15,681.05v43.26c0,6.32,0,6.32-6.38,6.32h-42Z" transform="translate(-204.48 -78.46)"/><path class="e" d="M575,710.8c0-5.83.06-11.66,0-17.49,0-1.71.55-2.15,2.2-2.14,9.27,0.07,18.53.08,27.8,0,1.87,0,2.25.63,2.24,2.35-0.08,8.39-.06,16.78,0,25.16a2.61,2.61,0,0,1-1.6,2.79,69.81,69.81,0,0,0-9,5c-6.09,4.31-12.91,4.46-19.92,4.17-1.65-.07-1.74-0.88-1.73-2.13C575,722.63,575,716.71,575,710.8Z" transform="translate(-204.48 -78.46)"/><path class="g" d="M509.1,708.19a67.79,67.79,0,0,1-5.58-18.7c-0.44-2.6-.67-5.23-1-7.83-0.19-1.28.3-1.78,1.56-1.68,0.64,0,1.28,0,1.92,0q59,0,118.07,0c5.91,0,11.83-.24,17.74-0.26,1.4,0,1.92-.34,2-1.82,0.64-7.27.17-14.54,0.08-21.81A123.41,123.41,0,0,0,640.82,629a11.13,11.13,0,0,1,0-1.66,75.82,75.82,0,0,1,4.72,15.16,120.86,120.86,0,0,1,2.54,25.71q0,7,.13,13.91c0,1.46-.42,2.07-1.9,1.89a15.72,15.72,0,0,0-1.92,0q-67.79,0-135.58,0c-2.3,0-2.86.42-2.67,2.88A161.77,161.77,0,0,0,509.1,708.19Z" transform="translate(-204.48 -78.46)"/><path class="c" d="M623.45,762.9c0.8,1.93,1.52,3.88,2.41,5.73,0.63,1.31.25,1.91-.94,2.59a107,107,0,0,1-32.62,12.1,142.53,142.53,0,0,1-39.08,2.39A100.66,100.66,0,0,1,523,778.86C558.3,785.45,592,782.2,623.45,762.9Z" transform="translate(-204.48 -78.46)"/><path class="e" d="M440.09,715.93c0-4.07.07-8.15,0-12.22,0-1.77.31-2.69,2.34-2.49,2.45,0.24,5.54-.94,7.2.45,1.5,1.26,1.44,4.35,2.13,6.61A114.25,114.25,0,0,0,460,728.61c0.77,1.45.87,2.07-1.1,2q-8.38-.12-16.77,0c-1.54,0-2.12-.44-2.08-2C440.15,724.39,440.09,720.16,440.09,715.93Z" transform="translate(-204.48 -78.46)"/><path class="c" d="M704.72,519.19q-3.35-3.38-6.71-6.75c-5.65-5.66-11.26-11.35-17-16.93a5.24,5.24,0,0,1-1.78-4.41c0.13-2.23,0-4.47,0-6.76,1.1,0,1.49.92,2.06,1.48,6.92,6.87,13.78,13.81,20.73,20.65a6.73,6.73,0,0,1,2.14,4.6c0.19,2.62.66,5.21,1,7.81Z" transform="translate(-204.48 -78.46)"/><path class="h" d="M440.09,656.17c0.25-5.24-.4-11.28-0.6-17.34,0-1.09.1-1.44,1.16-1.43,2.39,0,4.79.05,7.18,0,1.41,0,1.63.7,1.39,1.82a109.71,109.71,0,0,0-2.83,26.27c0,1.21-.37,1.65-1.63,1.71-4.66.23-4.65,0.28-4.65-4.45C440.09,660.83,440.09,658.91,440.09,656.17Z" transform="translate(-204.48 -78.46)"/><path class="e" d="M635.5,561.62c0.92,0.76.47,1.79,0.48,2.69q0,19.78,0,39.55c-5.34-7.53-12.39-13.37-19.48-19.16l0.27-.53c5.39,0,10.79-.11,16.18.06,2.19,0.07,2.67-.64,2.62-2.7C635.44,574.89,635.51,568.25,635.5,561.62Z" transform="translate(-204.48 -78.46)"/><path class="c" d="M307.14,642c0-2.2,0-4.89,0-7.58a2.13,2.13,0,0,1,.79-1.66c7.38-6.83,15.41-12.67,24.87-16.33a0.49,0.49,0,1,0-.07,0Z" transform="translate(-204.48 -78.46)"/><path class="c" d="M735.84,540.32h-10.1c-2.34-2.39-4.62-4.84-7-7.15a4.5,4.5,0,0,1-1.55-3.77c0.11-2.37,0-4.75,0-7.75Z" transform="translate(-204.48 -78.46)"/><path class="i" d="M757.78,561.42c-0.47,0-.94.07-1.41,0-5.89-.15-5.89-0.16-5.5-6.13C753.24,557.29,754.79,560.17,757.78,561.42Z" transform="translate(-204.48 -78.46)"/><path class="j" d="M246.06,776.72c3.78-.31,3.84-0.25,3.1,3.59Z" transform="translate(-204.48 -78.46)"/><path class="e" d="M758.81,581.43c-2.51.74-5.06,0.33-7.59,0.23C753.73,581.09,756.28,581.52,758.81,581.43Z" transform="translate(-204.48 -78.46)"/><path class="a" d="M732.94,758.89c0,2.32-.74,2.71-2.81,2.68q-13-.15-25.91,0c-2,0-2.52-.41-2.51-2.45,0.07-32.64,0-65.27.1-97.9,0-2.16-.49-2.84-2.7-2.71-3.5.2-7,0-10.55,0.08-1.26,0-1.81-.21-1.8-1.66q0.12-12.48,0-25c0-1.45.54-1.69,1.82-1.69,14.15,0,28.31.07,42.47,0,2.08,0,1.83,1.11,1.83,2.41q0,31.66,0,63.34C732.88,717,732.84,737.93,732.94,758.89Z" transform="translate(-204.48 -78.46)"/><path class="k" d="M735.84,600.58c0,10.5-9,19.17-19.82,19.18a19.47,19.47,0,0,1-19.54-19.17A19.68,19.68,0,1,1,735.84,600.58Z" transform="translate(-204.48 -78.46)"/><path class="l" d="M717,548.57c-0.08,1.46-.3,2.25-2,2a17.17,17.17,0,0,0-2.38,0c-0.56,0-1.12,0-1.67,0-1.48.12-2.5,0.08-2.46-2s0.64-2.52,2.47-2.32a15.22,15.22,0,0,0,3.57,0C716.45,546,717.16,546.61,717,548.57Z" transform="translate(-204.48 -78.46)"/><path class="m" d="M745,547.92c0,2.64.06,2.64-3.67,2.64a9.73,9.73,0,0,0-1.43,0c-1.57.24-2.27-.18-2.17-2,0.08-1.53.07-2.64,2.11-2.33a14.27,14.27,0,0,0,3.33,0C744.41,546.15,745,546.47,745,547.92Z" transform="translate(-204.48 -78.46)"/><path class="n" d="M689,548.52c0,2-.81,2.25-2.37,2a9,9,0,0,0-.91,0c-0.88-.53-3,1.2-3-1.7,0-2.1.51-3,2.64-2.59a4,4,0,0,0,1.19,0C688.22,546,689,546.48,689,548.52Z" transform="translate(-204.48 -78.46)"/><path class="n" d="M701.94,548.57c0.07,2.12-1,2.13-2.42,2-0.24,0-.48,0-0.91,0-0.8-.6-2.84,1.23-3-1.52-0.09-2,.31-3.22,2.66-2.77a3.66,3.66,0,0,0,1.19,0C701.34,546,701.87,546.66,701.94,548.57Z" transform="translate(-204.48 -78.46)"/><path class="o" d="M730,548.45c0,2.56-1.41,2.11-2.87,2.11H726.7c-1.42-.09-3.21.71-3-2.12,0.12-1.84.62-2.42,2.33-2.18a6,6,0,0,0,1.2,0C728.75,546.19,730,546,730,548.45Z" transform="translate(-204.48 -78.46)"/><path class="k" d="M547.65,649.36c-16,0-32,0-48,0-1.82,0-2.37-.21-2-2.32,1.88-12.15,5.42-23.61,13.08-33.47s18.24-15.28,30.59-16.92c9.68-1.29,19.34-1.13,28.57,2.51,14.61,5.75,23,16.83,26.68,31.83a74.15,74.15,0,0,1,1.81,16.15c0,1.81-.49,2.25-2.28,2.24C579.94,649.33,563.8,649.36,547.65,649.36Z" transform="translate(-204.48 -78.46)"/><path class="d" d="M728.72,696c0,20,0,40,.05,60,0,2-.52,2.49-2.49,2.45q-9-.21-18,0c-2,0-2.5-.42-2.49-2.45,0.07-32.55,0-65.11.12-97.66,0-2.51-.68-3.1-3-3-3.43.21-6.88,0-10.31,0.08-1.34,0-1.8-.38-1.78-1.76,0.07-6.08.09-12.16,0-18.24,0-1.62.48-2,2-2,11.28,0.06,22.56.09,33.83,0,2,0,2.14.69,2.13,2.32Q728.68,665.9,728.72,696Z" transform="translate(-204.48 -78.46)"/><path class="d" d="M732.23,600.36c0.06,8.45-7.31,15.79-15.94,15.88-8.79.09-16.25-7.18-16.2-15.8A16.07,16.07,0,0,1,732.23,600.36Z" transform="translate(-204.48 -78.46)"/><path class="e" d="M543.36,644.13c-4.87,0-9.75-.13-14.62.06-2.32.09-2.83-.74-2.73-2.85a95.06,95.06,0,0,0,0-10.54,7.23,7.23,0,0,1,2.41-5.92,39.48,39.48,0,0,1,22.88-11.46c2.59-.38,5.21-0.6,7.82-0.91,1.39-.17,2,0.27,2,1.82-0.06,8.71,0,17.42-.06,26.13,0,3.68-.16,3.68-3.76,3.68h-13.9Z" transform="translate(-204.48 -78.46)"/><path class="c" d="M571.87,606.19c-2.45-.19-4.72-0.42-7-0.52-14.87-.71-28.64,2.17-39.88,12.7-6.85,6.42-11.21,14.45-14.2,23.27-0.29.85-.16,2.22-1.28,2.34a33.09,33.09,0,0,1-5.49,0c-0.54,0-.3-0.63-0.22-1,2.92-14,8.23-26.61,20.74-34.8,8.9-5.83,19-7.14,29.39-6.76C560.91,601.66,567.69,603.44,571.87,606.19Z" transform="translate(-204.48 -78.46)"/><path class="e" d="M583.83,644.13c-2.32,0-4.64,0-7,0-1.26,0-1.89-.28-1.89-1.72q0.07-13.19,0-26.38c0-1.34.34-1.66,1.66-1.21a32.58,32.58,0,0,1,9.52,5c1.7,1.31,2.11,3.53,2.92,5.41a53.75,53.75,0,0,1,3.75,16.69c0.17,1.87-.54,2.37-2.29,2.27C588.31,644,586.07,644.13,583.83,644.13Z" transform="translate(-204.48 -78.46)"/><path class="p" d="M360.06,823.08h2.73l8.52,13.81V823.08h2.21v17.09h-2.6l-8.65-13.79v13.79h-2.21V823.08Z" transform="translate(-204.48 -78.46)"/><path class="p" d="M378.7,827.71V836a3.57,3.57,0,0,0,.29,1.56,2,2,0,0,0,2,1.12,2.87,2.87,0,0,0,2.9-2,8,8,0,0,0,.42-2.87v-6.12h2.09v12.46h-2l0-1.84a4.21,4.21,0,0,1-1,1.2,4.32,4.32,0,0,1-2.85,1,3.66,3.66,0,0,1-3.56-1.78,5.39,5.39,0,0,1-.51-2.55v-8.47h2.14Zm5.37-5L381,826.06h-1.61l2.13-3.36h2.58Z" transform="translate(-204.48 -78.46)"/><path class="p" d="M397.71,828.37a4.91,4.91,0,0,1,1.59,3.52h-2a3.75,3.75,0,0,0-.85-1.91,2.68,2.68,0,0,0-2.13-.76,2.94,2.94,0,0,0-2.86,2,7.75,7.75,0,0,0-.56,3.13,5.88,5.88,0,0,0,.79,3.15,3.07,3.07,0,0,0,4.55.48,4.36,4.36,0,0,0,1.05-2.17h2a4.92,4.92,0,0,1-5.32,4.77,4.77,4.77,0,0,1-3.9-1.79,6.84,6.84,0,0,1-1.45-4.46,7.51,7.51,0,0,1,1.59-5.11,5.15,5.15,0,0,1,4.06-1.83A5.43,5.43,0,0,1,397.71,828.37Z" transform="translate(-204.48 -78.46)"/><path class="p" d="M401.07,823.08h2.09v17.09h-2.09V823.08Z" transform="translate(-204.48 -78.46)"/><path class="p" d="M413.62,828.05a4.73,4.73,0,0,1,1.88,1.61,5.58,5.58,0,0,1,.83,2.2,14.39,14.39,0,0,1,.19,2.75h-9.06a5.38,5.38,0,0,0,.89,3,3,3,0,0,0,2.57,1.15,3.31,3.31,0,0,0,2.6-1.09,3.7,3.7,0,0,0,.77-1.46h2.06a4.34,4.34,0,0,1-.54,1.53,5.48,5.48,0,0,1-1,1.38,4.83,4.83,0,0,1-2.34,1.26,7.07,7.07,0,0,1-1.7.19,5.2,5.2,0,0,1-3.92-1.69,6.61,6.61,0,0,1-1.61-4.74,7.19,7.19,0,0,1,1.62-4.87,5.33,5.33,0,0,1,4.23-1.87A5.63,5.63,0,0,1,413.62,828.05Zm0.75,4.89a5.46,5.46,0,0,0-.59-2.18,3,3,0,0,0-2.85-1.51,3.14,3.14,0,0,0-2.4,1,4,4,0,0,0-1,2.65h6.86Z" transform="translate(-204.48 -78.46)"/><path class="p" d="M427.82,829a6.29,6.29,0,0,1,1.65,4.72,8.13,8.13,0,0,1-1.46,5,5.25,5.25,0,0,1-4.52,2,5.09,5.09,0,0,1-4.06-1.74,6.89,6.89,0,0,1-1.5-4.67,7.46,7.46,0,0,1,1.58-5,5.3,5.3,0,0,1,4.25-1.86A5.58,5.58,0,0,1,427.82,829Zm-1.3,8.28a7.91,7.91,0,0,0,.77-3.5,6.29,6.29,0,0,0-.55-2.84,3.1,3.1,0,0,0-3-1.72,3,3,0,0,0-2.76,1.46,6.84,6.84,0,0,0-.86,3.53,6,6,0,0,0,.86,3.31,3,3,0,0,0,2.74,1.32A2.85,2.85,0,0,0,426.52,837.23Z" transform="translate(-204.48 -78.46)"/><path class="p" d="M444.74,828.09a5.62,5.62,0,0,1,1.26,1.22V823h2v17.15h-1.88v-1.73a4.53,4.53,0,0,1-1.73,1.66,4.93,4.93,0,0,1-2.28.51,4.62,4.62,0,0,1-3.59-1.75A6.86,6.86,0,0,1,437,834.2a8.07,8.07,0,0,1,1.38-4.72,4.53,4.53,0,0,1,4-2A4.4,4.4,0,0,1,444.74,828.09Zm-4.67,9.34a3,3,0,0,0,2.71,1.35,2.85,2.85,0,0,0,2.38-1.25,5.93,5.93,0,0,0,.93-3.59,5.33,5.33,0,0,0-1-3.5,3,3,0,0,0-2.37-1.13,3.13,3.13,0,0,0-2.55,1.21,5.56,5.56,0,0,0-1,3.56A6.2,6.2,0,0,0,440.07,837.43Z" transform="translate(-204.48 -78.46)"/><path class="p" d="M458.46,828.05a4.73,4.73,0,0,1,1.88,1.61,5.58,5.58,0,0,1,.83,2.2,14.39,14.39,0,0,1,.19,2.75H452.3a5.38,5.38,0,0,0,.89,3,3,3,0,0,0,2.57,1.15,3.31,3.31,0,0,0,2.6-1.09,3.7,3.7,0,0,0,.77-1.46h2.06a4.34,4.34,0,0,1-.54,1.53,5.48,5.48,0,0,1-1,1.38,4.83,4.83,0,0,1-2.34,1.26,7.07,7.07,0,0,1-1.7.19,5.2,5.2,0,0,1-3.92-1.69,6.61,6.61,0,0,1-1.61-4.74,7.19,7.19,0,0,1,1.62-4.87,5.33,5.33,0,0,1,4.23-1.87A5.63,5.63,0,0,1,458.46,828.05Zm0.75,4.89a5.46,5.46,0,0,0-.59-2.18,3,3,0,0,0-2.85-1.51,3.14,3.14,0,0,0-2.4,1,4,4,0,0,0-1,2.65h6.86Z" transform="translate(-204.48 -78.46)"/><path class="p" d="M470.38,823.08h12.4v2.09H472.63v5.19H482v2h-9.38v5.79H483v2H470.38V823.08Z" transform="translate(-204.48 -78.46)"/><path class="p" d="M486.63,836.26a3,3,0,0,0,.53,1.61,3.4,3.4,0,0,0,2.8,1,4.19,4.19,0,0,0,2.09-.51,1.67,1.67,0,0,0,.9-1.56,1.33,1.33,0,0,0-.72-1.22,8.63,8.63,0,0,0-1.82-.59l-1.69-.42a8.35,8.35,0,0,1-2.39-.88,2.64,2.64,0,0,1-1.37-2.35,3.57,3.57,0,0,1,1.29-2.86,5.19,5.19,0,0,1,3.47-1.09,4.85,4.85,0,0,1,4.11,1.65,3.56,3.56,0,0,1,.77,2.26h-2a2.38,2.38,0,0,0-.51-1.29,3.33,3.33,0,0,0-2.56-.82,3.13,3.13,0,0,0-1.84.45,1.41,1.41,0,0,0-.62,1.19,1.46,1.46,0,0,0,.82,1.3,5,5,0,0,0,1.4.51l1.41,0.34a11,11,0,0,1,3.08,1.06,2.8,2.8,0,0,1,1.22,2.52,3.82,3.82,0,0,1-1.28,2.87,5.48,5.48,0,0,1-3.89,1.21q-2.81,0-4-1.26a4.74,4.74,0,0,1-1.25-3.12h2Z" transform="translate(-204.48 -78.46)"/><path class="p" d="M497.34,824.23h2.12v3.48h2v1.71h-2v8.13a0.88,0.88,0,0,0,.44.87,1.87,1.87,0,0,0,.81.13H501l0.41,0v1.66a4.74,4.74,0,0,1-.75.15,7.08,7.08,0,0,1-.84,0,2.27,2.27,0,0,1-2-.75,3.34,3.34,0,0,1-.52-1.95v-8.25h-1.69v-1.71h1.69v-3.48Z" transform="translate(-204.48 -78.46)"/><path class="p" d="M505.25,827.71V836a3.57,3.57,0,0,0,.29,1.56,2,2,0,0,0,2,1.12,2.87,2.87,0,0,0,2.9-2,8,8,0,0,0,.42-2.87v-6.12H513v12.46h-2l0-1.84a4.21,4.21,0,0,1-1,1.2,4.32,4.32,0,0,1-2.85,1,3.66,3.66,0,0,1-3.56-1.78,5.39,5.39,0,0,1-.51-2.55v-8.47h2.14Z" transform="translate(-204.48 -78.46)"/><path class="p" d="M522.87,828.09a5.62,5.62,0,0,1,1.26,1.22V823h2v17.15h-1.88v-1.73a4.53,4.53,0,0,1-1.73,1.66,4.93,4.93,0,0,1-2.28.51,4.62,4.62,0,0,1-3.59-1.75,6.86,6.86,0,0,1-1.52-4.66,8.07,8.07,0,0,1,1.38-4.72,4.53,4.53,0,0,1,4-2A4.4,4.4,0,0,1,522.87,828.09Zm-4.67,9.34a3,3,0,0,0,2.71,1.35,2.85,2.85,0,0,0,2.38-1.25,5.93,5.93,0,0,0,.93-3.59,5.33,5.33,0,0,0-1-3.5,3,3,0,0,0-2.37-1.13,3.13,3.13,0,0,0-2.55,1.21,5.56,5.56,0,0,0-1,3.56A6.2,6.2,0,0,0,518.2,837.43Z" transform="translate(-204.48 -78.46)"/><path class="p" d="M535.57,832.63a1.14,1.14,0,0,0,1-.6,1.86,1.86,0,0,0,.14-0.81,1.71,1.71,0,0,0-.76-1.56,4.06,4.06,0,0,0-2.18-.48,2.76,2.76,0,0,0-2.32.89,3,3,0,0,0-.5,1.46h-2a3.61,3.61,0,0,1,1.49-3.21,6.12,6.12,0,0,1,3.33-.9,6.78,6.78,0,0,1,3.57.84,2.84,2.84,0,0,1,1.36,2.61V838a0.91,0.91,0,0,0,.13.52,0.65,0.65,0,0,0,.56.2l0.31,0,0.37-.05v1.55a5.8,5.8,0,0,1-.74.18,5.62,5.62,0,0,1-.7,0,1.72,1.72,0,0,1-1.57-.77,3,3,0,0,1-.36-1.15,5.32,5.32,0,0,1-1.84,1.45,5.67,5.67,0,0,1-2.64.62,3.93,3.93,0,0,1-2.83-1.05,3.49,3.49,0,0,1-1.1-2.63,3.38,3.38,0,0,1,1.08-2.68,5.15,5.15,0,0,1,2.84-1.17Zm-4.41,5.66a2.46,2.46,0,0,0,1.57.52,4.78,4.78,0,0,0,2.14-.51,2.88,2.88,0,0,0,1.74-2.78v-1.68a3.55,3.55,0,0,1-1,.41,8.32,8.32,0,0,1-1.18.23l-1.27.16a4.91,4.91,0,0,0-1.71.48,1.85,1.85,0,0,0-1,1.74A1.72,1.72,0,0,0,531.16,838.28Z" transform="translate(-204.48 -78.46)"/><path class="p" d="M541.76,827.71h2v1.77a5.57,5.57,0,0,1,1.87-1.57,5,5,0,0,1,2.2-.48,3.62,3.62,0,0,1,3.58,1.85,6.57,6.57,0,0,1,.51,2.9v8h-2.13v-7.85a4.26,4.26,0,0,0-.34-1.84,2,2,0,0,0-2-1.16,4.1,4.1,0,0,0-1.22.15,3.14,3.14,0,0,0-1.51,1,3.08,3.08,0,0,0-.68,1.27,8.53,8.53,0,0,0-.16,1.88v6.53h-2.09V827.71Z" transform="translate(-204.48 -78.46)"/><path class="p" d="M555.05,824.23h2.12v3.48h2v1.71h-2v8.13a0.88,0.88,0,0,0,.44.87,1.87,1.87,0,0,0,.81.13h0.33l0.41,0v1.66a4.74,4.74,0,0,1-.75.15,7.08,7.08,0,0,1-.84,0,2.27,2.27,0,0,1-2-.75,3.34,3.34,0,0,1-.52-1.95v-8.25h-1.69v-1.71h1.69v-3.48Z" transform="translate(-204.48 -78.46)"/><path class="p" d="M568.57,828.05a4.73,4.73,0,0,1,1.88,1.61,5.58,5.58,0,0,1,.83,2.2,14.39,14.39,0,0,1,.19,2.75h-9.06a5.38,5.38,0,0,0,.89,3,3,3,0,0,0,2.57,1.15,3.31,3.31,0,0,0,2.6-1.09,3.7,3.7,0,0,0,.77-1.46h2.06a4.34,4.34,0,0,1-.54,1.53,5.48,5.48,0,0,1-1,1.38,4.83,4.83,0,0,1-2.34,1.26,7.07,7.07,0,0,1-1.7.19,5.2,5.2,0,0,1-3.92-1.69,6.61,6.61,0,0,1-1.61-4.74,7.19,7.19,0,0,1,1.62-4.87,5.33,5.33,0,0,1,4.23-1.87A5.63,5.63,0,0,1,568.57,828.05Zm0.75,4.89a5.46,5.46,0,0,0-.59-2.18,3,3,0,0,0-2.85-1.51,3.14,3.14,0,0,0-2.4,1,4,4,0,0,0-1,2.65h6.86Z" transform="translate(-204.48 -78.46)"/><path class="p" d="M575,836.26a3,3,0,0,0,.53,1.61,3.4,3.4,0,0,0,2.8,1,4.19,4.19,0,0,0,2.09-.51,1.67,1.67,0,0,0,.9-1.56,1.33,1.33,0,0,0-.72-1.22,8.63,8.63,0,0,0-1.82-.59l-1.69-.42a8.35,8.35,0,0,1-2.39-.88,2.64,2.64,0,0,1-1.37-2.35,3.57,3.57,0,0,1,1.29-2.86,5.19,5.19,0,0,1,3.47-1.09A4.85,4.85,0,0,1,582.2,829a3.56,3.56,0,0,1,.77,2.26h-2a2.38,2.38,0,0,0-.51-1.29,3.33,3.33,0,0,0-2.56-.82,3.13,3.13,0,0,0-1.84.45,1.41,1.41,0,0,0-.62,1.19,1.46,1.46,0,0,0,.82,1.3,5,5,0,0,0,1.4.51l1.41,0.34a11,11,0,0,1,3.08,1.06,2.8,2.8,0,0,1,1.22,2.52,3.82,3.82,0,0,1-1.28,2.87,5.48,5.48,0,0,1-3.89,1.21q-2.81,0-4-1.26a4.74,4.74,0,0,1-1.25-3.12h2Z" transform="translate(-204.48 -78.46)"/><path class="p" d="M598.35,828.09a5.62,5.62,0,0,1,1.26,1.22V823h2v17.15h-1.88v-1.73A4.53,4.53,0,0,1,598,840.1a4.93,4.93,0,0,1-2.28.51,4.62,4.62,0,0,1-3.59-1.75,6.86,6.86,0,0,1-1.52-4.66,8.07,8.07,0,0,1,1.38-4.72,4.53,4.53,0,0,1,4-2A4.4,4.4,0,0,1,598.35,828.09Zm-4.67,9.34a3,3,0,0,0,2.71,1.35,2.85,2.85,0,0,0,2.38-1.25,5.93,5.93,0,0,0,.93-3.59,5.33,5.33,0,0,0-1-3.5,3,3,0,0,0-2.37-1.13,3.13,3.13,0,0,0-2.55,1.21,5.56,5.56,0,0,0-1,3.56A6.2,6.2,0,0,0,593.68,837.43Z" transform="translate(-204.48 -78.46)"/><path class="p" d="M612.07,828.05a4.73,4.73,0,0,1,1.88,1.61,5.58,5.58,0,0,1,.83,2.2,14.39,14.39,0,0,1,.19,2.75h-9.06a5.38,5.38,0,0,0,.89,3,3,3,0,0,0,2.57,1.15,3.31,3.31,0,0,0,2.6-1.09,3.7,3.7,0,0,0,.77-1.46h2.06a4.34,4.34,0,0,1-.54,1.53,5.48,5.48,0,0,1-1,1.38,4.83,4.83,0,0,1-2.34,1.26,7.07,7.07,0,0,1-1.7.19,5.2,5.2,0,0,1-3.92-1.69,6.61,6.61,0,0,1-1.61-4.74,7.19,7.19,0,0,1,1.62-4.87,5.33,5.33,0,0,1,4.23-1.87A5.63,5.63,0,0,1,612.07,828.05Zm0.75,4.89a5.46,5.46,0,0,0-.59-2.18,3,3,0,0,0-2.85-1.51,3.14,3.14,0,0,0-2.4,1,4,4,0,0,0-1,2.65h6.86Z" transform="translate(-204.48 -78.46)"/><path class="p" d="M624.29,823.08h2.34v17.09h-2.34V823.08Z" transform="translate(-204.48 -78.46)"/><path class="p" d="M629.72,827.71h2v1.77a5.57,5.57,0,0,1,1.87-1.57,5,5,0,0,1,2.2-.48,3.62,3.62,0,0,1,3.58,1.85,6.57,6.57,0,0,1,.51,2.9v8h-2.13v-7.85a4.26,4.26,0,0,0-.34-1.84,2,2,0,0,0-2-1.16,4.1,4.1,0,0,0-1.22.15,3.14,3.14,0,0,0-1.51,1,3.08,3.08,0,0,0-.68,1.27,8.53,8.53,0,0,0-.16,1.88v6.53h-2.09V827.71Z" transform="translate(-204.48 -78.46)"/><path class="p" d="M643.57,823.9a3.2,3.2,0,0,1,2.83-1.07h0.41l0.48,0v1.91l-0.48,0h-0.28a1.09,1.09,0,0,0-1.15.49,9.64,9.64,0,0,0-.19,2.52h2.09v1.65h-2.09v10.75h-2.07V829.42h-1.73v-1.65h1.73v-2A3.73,3.73,0,0,1,643.57,823.9Z" transform="translate(-204.48 -78.46)"/><path class="p" d="M657.86,829a6.29,6.29,0,0,1,1.65,4.72,8.13,8.13,0,0,1-1.46,5,5.25,5.25,0,0,1-4.52,2,5.09,5.09,0,0,1-4.06-1.74,6.89,6.89,0,0,1-1.5-4.67,7.46,7.46,0,0,1,1.58-5,5.3,5.3,0,0,1,4.25-1.86A5.58,5.58,0,0,1,657.86,829Zm-1.3,8.28a7.91,7.91,0,0,0,.77-3.5,6.29,6.29,0,0,0-.55-2.84,3.1,3.1,0,0,0-3-1.72,3,3,0,0,0-2.76,1.46,6.84,6.84,0,0,0-.86,3.53,6,6,0,0,0,.86,3.31,3,3,0,0,0,2.74,1.32A2.85,2.85,0,0,0,656.56,837.23Z" transform="translate(-204.48 -78.46)"/><path class="p" d="M661.76,827.71h2v2.15a4.77,4.77,0,0,1,1.2-1.53,3.11,3.11,0,0,1,2.2-.9h0.2l0.48,0v2.21l-0.34,0h-0.34a3,3,0,0,0-2.43,1,3.56,3.56,0,0,0-.85,2.34v7.17h-2.09V827.71Z" transform="translate(-204.48 -78.46)"/><path class="p" d="M669.25,827.71h2.07v1.77a6.94,6.94,0,0,1,1.35-1.34,4.06,4.06,0,0,1,2.35-.71,3.7,3.7,0,0,1,2.4.73,3.84,3.84,0,0,1,.93,1.23,4.52,4.52,0,0,1,1.64-1.48,4.58,4.58,0,0,1,2.12-.48,3.46,3.46,0,0,1,3.42,1.82,5.93,5.93,0,0,1,.49,2.63v8.29h-2.17v-8.66a2,2,0,0,0-.62-1.71,2.47,2.47,0,0,0-1.52-.47,3,3,0,0,0-2.12.83,3.63,3.63,0,0,0-.89,2.76v7.25h-2.13V832a4.23,4.23,0,0,0-.3-1.85,1.84,1.84,0,0,0-1.78-.87,3.07,3.07,0,0,0-2.16.92,4.5,4.5,0,0,0-1,3.33v6.61h-2.09V827.71Z" transform="translate(-204.48 -78.46)"/><path class="p" d="M695.4,832.63a1.14,1.14,0,0,0,1-.6,1.86,1.86,0,0,0,.14-0.81,1.71,1.71,0,0,0-.76-1.56,4.06,4.06,0,0,0-2.18-.48,2.76,2.76,0,0,0-2.32.89,3,3,0,0,0-.5,1.46h-2a3.61,3.61,0,0,1,1.49-3.21,6.12,6.12,0,0,1,3.33-.9,6.78,6.78,0,0,1,3.57.84,2.84,2.84,0,0,1,1.36,2.61V838a0.91,0.91,0,0,0,.13.52,0.65,0.65,0,0,0,.56.2l0.31,0,0.37-.05v1.55a5.8,5.8,0,0,1-.74.18,5.62,5.62,0,0,1-.7,0,1.72,1.72,0,0,1-1.57-.77,3,3,0,0,1-.36-1.15,5.32,5.32,0,0,1-1.84,1.45,5.67,5.67,0,0,1-2.64.62,3.93,3.93,0,0,1-2.83-1.05,3.49,3.49,0,0,1-1.1-2.63,3.38,3.38,0,0,1,1.08-2.68,5.15,5.15,0,0,1,2.84-1.17ZM691,838.28a2.46,2.46,0,0,0,1.57.52,4.78,4.78,0,0,0,2.14-.51,2.88,2.88,0,0,0,1.74-2.78v-1.68a3.55,3.55,0,0,1-1,.41,8.32,8.32,0,0,1-1.18.23l-1.27.16a4.91,4.91,0,0,0-1.71.48,1.85,1.85,0,0,0-1,1.74A1.72,1.72,0,0,0,691,838.28Zm5.29-15.59-3.11,3.36h-1.61l2.13-3.36h2.58Z" transform="translate(-204.48 -78.46)"/><path class="p" d="M702,824.23h2.12v3.48h2v1.71h-2v8.13a0.88,0.88,0,0,0,.44.87,1.87,1.87,0,0,0,.81.13h0.33l0.41,0v1.66a4.74,4.74,0,0,1-.75.15,7.08,7.08,0,0,1-.84,0,2.27,2.27,0,0,1-2-.75,3.34,3.34,0,0,1-.52-1.95v-8.25h-1.69v-1.71H702v-3.48Z" transform="translate(-204.48 -78.46)"/><path class="p" d="M707.83,823.08H710v2.37h-2.13v-2.37Zm0,4.69H710v12.4h-2.13v-12.4Z" transform="translate(-204.48 -78.46)"/><path class="p" d="M721,828.37a4.91,4.91,0,0,1,1.59,3.52h-2a3.75,3.75,0,0,0-.85-1.91,2.68,2.68,0,0,0-2.13-.76,2.94,2.94,0,0,0-2.86,2,7.75,7.75,0,0,0-.56,3.13,5.88,5.88,0,0,0,.79,3.15,3.07,3.07,0,0,0,4.55.48,4.36,4.36,0,0,0,1.05-2.17h2a4.92,4.92,0,0,1-5.32,4.77,4.77,4.77,0,0,1-3.9-1.79,6.84,6.84,0,0,1-1.45-4.46,7.51,7.51,0,0,1,1.59-5.11,5.15,5.15,0,0,1,4.06-1.83A5.43,5.43,0,0,1,721,828.37Z" transform="translate(-204.48 -78.46)"/><path class="p" d="M730.95,832.63a1.14,1.14,0,0,0,1-.6,1.86,1.86,0,0,0,.14-0.81,1.71,1.71,0,0,0-.76-1.56,4.06,4.06,0,0,0-2.18-.48,2.76,2.76,0,0,0-2.32.89,3,3,0,0,0-.5,1.46h-2a3.61,3.61,0,0,1,1.49-3.21,6.12,6.12,0,0,1,3.33-.9,6.78,6.78,0,0,1,3.57.84,2.84,2.84,0,0,1,1.36,2.61V838a0.91,0.91,0,0,0,.13.52,0.65,0.65,0,0,0,.56.2l0.31,0,0.37-.05v1.55a5.8,5.8,0,0,1-.74.18,5.62,5.62,0,0,1-.7,0,1.72,1.72,0,0,1-1.57-.77,3,3,0,0,1-.36-1.15,5.32,5.32,0,0,1-1.84,1.45,5.67,5.67,0,0,1-2.64.62,3.93,3.93,0,0,1-2.83-1.05,3.49,3.49,0,0,1-1.1-2.63,3.38,3.38,0,0,1,1.08-2.68,5.15,5.15,0,0,1,2.84-1.17Zm-4.41,5.66a2.46,2.46,0,0,0,1.57.52,4.78,4.78,0,0,0,2.14-.51,2.88,2.88,0,0,0,1.74-2.78v-1.68a3.55,3.55,0,0,1-1,.41,8.32,8.32,0,0,1-1.18.23l-1.27.16a4.91,4.91,0,0,0-1.71.48,1.85,1.85,0,0,0-1,1.74A1.72,1.72,0,0,0,726.54,838.28Z" transform="translate(-204.48 -78.46)"/></svg>
