<svg width="248" height="138" viewBox="0 0 248 138" fill="none" xmlns="http://www.w3.org/2000/svg">
<path d="M26.82 132.58L26.4408 133.505L26.82 132.58ZM8.2 118.52L7.39405 119.112L7.40196 119.123L8.2 118.52ZM0.98 96.1V95.1C0.70976 95.1 0.451024 95.2094 0.262723 95.4032C0.0744228 95.597 -0.0274096 95.8588 -0.0195794 96.129L0.98 96.1ZM35.56 96.1L36.5548 95.998C36.5025 95.4879 36.0728 95.1 35.56 95.1V96.1ZM40.69 107.5L40.0157 108.238C40.0217 108.244 40.0277 108.249 40.0338 108.255L40.69 107.5ZM63.49 108.07L64.1014 108.861C64.1088 108.856 64.1161 108.85 64.1232 108.844L63.49 108.07ZM64.25 90.59L63.5429 91.2971C63.5496 91.3038 63.5565 91.3105 63.5634 91.317L64.25 90.59ZM56.08 85.27L55.6773 86.1853C55.6816 86.1872 55.686 86.1891 55.6904 86.191L56.08 85.27ZM42.4 80.52L42.1049 81.4755L42.1145 81.4784L42.4 80.52ZM21.31 72.54L20.8712 73.4386L21.31 72.54ZM7.25 60.76L8.04766 60.1569L7.25 60.76ZM14.85 11.36L15.4624 12.1506L15.4693 12.1452L14.85 11.36ZM85.53 11.36L84.9107 12.1452L84.9176 12.1505L85.53 11.36ZM99.97 40.62V41.62C100.244 41.62 100.506 41.5076 100.695 41.309C100.883 41.1105 100.983 40.8432 100.969 40.5696L99.97 40.62ZM64.82 40.62L63.8217 40.6787C63.8528 41.2073 64.2905 41.62 64.82 41.62V40.62ZM60.07 30.55L59.4138 31.3046C59.4202 31.3101 59.4266 31.3156 59.4331 31.321L60.07 30.55ZM39.36 29.98L40.0041 30.7449C40.0118 30.7385 40.0193 30.7319 40.0268 30.7252L39.36 29.98ZM41.83 48.98L42.3405 48.1201L41.83 48.98ZM60.83 56.77L61.1504 55.8226L61.1378 55.8186L60.83 56.77ZM81.73 65.13L81.2828 66.0245L81.2912 66.0286L81.73 65.13ZM95.79 76.72L94.9996 77.3326L95.79 76.72ZM95.79 117L94.9449 116.465C94.9423 116.469 94.9397 116.474 94.9371 116.478L95.79 117ZM79.07 131.82L78.6228 130.926L79.07 131.82ZM53.04 136.33C43.3952 136.33 34.7871 134.764 27.1992 131.655L26.4408 133.505C34.3062 136.729 43.1782 138.33 53.04 138.33V136.33ZM27.1992 131.655C19.6259 128.551 13.5686 123.97 8.99804 117.917L7.40196 119.123C12.2047 125.483 18.5608 130.276 26.4408 133.505L27.1992 131.655ZM9.00588 117.928C4.58195 111.906 2.22785 104.636 1.97958 96.071L-0.0195794 96.129C0.238813 105.044 2.69805 112.72 7.39412 119.112L9.00588 117.928ZM0.98 97.1H35.56V95.1H0.98V97.1ZM34.5652 96.202C35.0902 101.321 36.8777 105.373 40.0157 108.238L41.3643 106.762C38.6757 104.307 37.0431 100.759 36.5548 95.998L34.5652 96.202ZM40.0338 108.255C43.1661 110.978 47.2161 112.3 52.09 112.3V110.3C47.5906 110.3 44.0406 109.088 41.3462 106.745L40.0338 108.255ZM52.09 112.3C57.0444 112.3 61.0854 111.192 64.1014 108.861L62.8786 107.279C60.3213 109.255 56.7622 110.3 52.09 110.3V112.3ZM64.1232 108.844C67.165 106.355 68.67 102.956 68.67 98.76H66.67C66.67 102.418 65.3884 105.225 62.8568 107.296L64.1232 108.844ZM68.67 98.76C68.67 95.207 67.4276 92.2156 64.9366 89.863L63.5634 91.317C65.6324 93.2711 66.67 95.7263 66.67 98.76H68.67ZM64.9571 89.8829C62.6983 87.6241 59.8613 85.7839 56.4696 84.349L55.6904 86.191C58.8854 87.5427 61.495 89.2492 63.5429 91.2971L64.9571 89.8829ZM56.4827 84.3547C53.2592 82.9363 48.6527 81.3391 42.6855 79.5616L42.1145 81.4784C48.054 83.2476 52.5674 84.817 55.6773 86.1853L56.4827 84.3547ZM42.6951 79.5645C34.1098 76.9132 27.1327 74.2707 21.7488 71.6414L20.8712 73.4386C26.3807 76.1293 33.4636 78.8068 42.1049 81.4755L42.6951 79.5645ZM21.7488 71.6414C16.4537 69.0554 11.8868 65.2344 8.04766 60.1569L6.45234 61.3631C10.4666 66.6722 15.273 70.7046 20.8712 73.4386L21.7488 71.6414ZM8.04766 60.1569C4.28545 55.1811 2.36 48.6346 2.36 40.43H0.360001C0.360001 48.9454 2.36122 55.9523 6.45234 61.3631L8.04766 60.1569ZM2.36 40.43C2.36 28.2935 6.73811 18.9088 15.4624 12.1505L14.2376 10.5694C4.97523 17.7445 0.360001 27.7398 0.360001 40.43H2.36ZM15.4693 12.1452C24.2445 5.22391 35.725 1.72 50 1.72V-0.280003C35.395 -0.280003 23.4422 3.30942 14.2307 10.5748L15.4693 12.1452ZM50 1.72C64.533 1.72 76.1384 5.22619 84.9107 12.1452L86.1493 10.5748C76.9349 3.30714 64.8537 -0.280003 50 -0.280003V1.72ZM84.9176 12.1505C93.6548 18.9188 98.3509 28.3877 98.9713 40.6704L100.969 40.5696C100.322 27.7723 95.3919 17.7345 86.1424 10.5694L84.9176 12.1505ZM99.97 39.62H64.82V41.62H99.97V39.62ZM65.8183 40.5613C65.5512 36.0205 63.8656 32.3884 60.7069 29.779L59.4331 31.321C62.1011 33.5249 63.5822 36.6062 63.8217 40.6787L65.8183 40.5613ZM60.7262 29.7954C57.5989 27.076 53.6151 25.75 48.86 25.75V27.75C53.2249 27.75 56.7144 28.9573 59.4138 31.3046L60.7262 29.7954ZM48.86 25.75C44.743 25.75 41.3209 26.8837 38.6932 29.2348L40.0268 30.7252C42.2125 28.7696 45.1237 27.75 48.86 27.75V25.75ZM38.7159 29.2151C36.0291 31.4776 34.75 34.7679 34.75 38.91H36.75C36.75 35.1988 37.8776 32.5357 40.0041 30.7449L38.7159 29.2151ZM34.75 38.91C34.75 43.6081 36.9973 47.2736 41.3195 49.8399L42.3405 48.1201C38.556 45.8731 36.75 42.8252 36.75 38.91H34.75ZM41.3195 49.8399C45.471 52.3048 51.8902 54.9287 60.5222 57.7214L61.1378 55.8186C52.5432 53.0379 46.2957 50.4685 42.3405 48.1201L41.3195 49.8399ZM60.5096 57.7173C69.0996 60.6227 76.0192 63.3926 81.2828 66.0244L82.1772 64.2356C76.8008 61.5474 69.787 58.7439 61.1504 55.8227L60.5096 57.7173ZM81.2912 66.0286C86.5924 68.6175 91.1612 72.3797 94.9996 77.3326L96.5804 76.1074C92.5655 70.9269 87.7609 66.9624 82.1688 64.2314L81.2912 66.0286ZM94.9996 77.3326C98.76 82.1847 100.68 88.4763 100.68 96.29H102.68C102.68 88.1436 100.673 81.3887 96.5804 76.1074L94.9996 77.3326ZM100.68 96.29C100.68 103.708 98.7667 110.424 94.9449 116.465L96.6351 117.535C100.667 111.162 102.68 104.072 102.68 96.29H100.68ZM94.9371 116.478C91.247 122.505 85.8242 127.325 78.6228 130.926L79.5172 132.714C87.0092 128.968 92.733 123.908 96.6429 117.522L94.9371 116.478ZM78.6228 130.926C71.442 134.516 62.9248 136.33 53.04 136.33V138.33C63.1685 138.33 72.0046 136.471 79.5172 132.714L78.6228 130.926ZM204.705 112.44L205.652 112.119C205.514 111.713 205.133 111.44 204.705 111.44V112.44ZM154.925 112.44V111.44C154.496 111.44 154.115 111.713 153.977 112.119L154.925 112.44ZM146.945 136V137C147.373 137 147.754 136.727 147.892 136.321L146.945 136ZM112.935 136L111.994 135.66C111.883 135.966 111.929 136.308 112.116 136.574C112.303 136.841 112.609 137 112.935 137V136ZM161.195 2.62V1.62C160.773 1.62 160.397 1.88379 160.254 2.27976L161.195 2.62ZM198.815 2.62L199.755 2.27976C199.612 1.88379 199.236 1.62 198.815 1.62V2.62ZM247.075 136V137C247.4 137 247.706 136.841 247.893 136.574C248.08 136.308 248.126 135.966 248.015 135.66L247.075 136ZM212.685 136L211.737 136.321C211.875 136.727 212.256 137 212.685 137V136ZM196.345 87.36V88.36C196.667 88.36 196.969 88.2047 197.157 87.9428C197.345 87.6809 197.395 87.3446 197.292 87.0394L196.345 87.36ZM179.815 38.53L180.762 38.2094C180.624 37.8027 180.242 37.5292 179.813 37.53C179.383 37.5308 179.002 37.8055 178.866 38.2127L179.815 38.53ZM163.475 87.36L162.526 87.0427C162.424 87.3477 162.475 87.6832 162.663 87.9442C162.851 88.2053 163.153 88.36 163.475 88.36V87.36ZM204.705 111.44H154.925V113.44H204.705V111.44ZM153.977 112.119L145.997 135.679L147.892 136.321L155.872 112.761L153.977 112.119ZM146.945 135H112.935V137H146.945V135ZM113.875 136.34L162.135 2.96023L160.254 2.27976L111.994 135.66L113.875 136.34ZM161.195 3.62H198.815V1.62H161.195V3.62ZM197.874 2.96023L246.134 136.34L248.015 135.66L199.755 2.27976L197.874 2.96023ZM247.075 135H212.685V137H247.075V135ZM213.632 135.679L205.652 112.119L203.757 112.761L211.737 136.321L213.632 135.679ZM197.292 87.0394L180.762 38.2094L178.867 38.8506L195.397 87.6806L197.292 87.0394ZM178.866 38.2127L162.526 87.0427L164.423 87.6773L180.763 38.8473L178.866 38.2127ZM163.475 88.36H196.345V86.36H163.475V88.36Z" fill="white" fill-opacity="0.2"/>
</svg>
